<?xml version="1.0" standalone="no"?>
<!DOCTYPE svg PUBLIC "-//W3C//DTD SVG 1.1//EN" "http://www.w3.org/Graphics/SVG/1.1/DTD/svg11.dtd" >
<svg xmlns="http://www.w3.org/2000/svg" xmlns:xlink="http://www.w3.org/1999/xlink" version="1.1">
<metadata></metadata>
<defs>
<font id="relativebook_italic" horiz-adv-x="634" >
<font-face units-per-em="1024" ascent="819" descent="-205" />
<missing-glyph horiz-adv-x="237" />
<glyph horiz-adv-x="0" />
<glyph horiz-adv-x="0" />
<glyph horiz-adv-x="341" />
<glyph unicode="&#xd;" horiz-adv-x="0" />
<glyph unicode=" "  horiz-adv-x="237" />
<glyph unicode="&#x09;" horiz-adv-x="237" />
<glyph unicode="&#xa0;" horiz-adv-x="237" />
<glyph unicode="!" horiz-adv-x="359" d="M222 717h70q8 0 8 -10l-97 -499q-1 -10 -13 -10h-69q-8 0 -8 10l97 499q1 10 12 10zM94 102h86q8 0 8 -10l-16 -82q-1 -10 -12 -10h-86q-8 0 -8 10l16 82q1 10 12 10z" />
<glyph unicode="&#x22;" horiz-adv-x="391" d="M75 492l42 215q1 10 12 10h61q9 0 9 -10l-42 -215q-2 -11 -13 -11h-61q-8 0 -8 11zM269 492l42 215q1 10 13 10h61q8 0 8 -10l-42 -215q-2 -11 -12 -11h-61q-9 0 -9 11z" />
<glyph unicode="#" horiz-adv-x="766" d="M340 10l71 193h-167l-71 -193q-4 -10 -13 -10h-70q-7 0 -7 10l71 193h-114q-8 0 -8 10l12 61q3 11 11 11h129l54 147h-114q-8 0 -8 10l12 62q2 10 12 10h127l72 193q4 10 13 10h70q8 0 8 -5q0 -2 -1 -5l-72 -193h167l72 193q4 10 13 10h70q8 0 8 -5q0 -2 -1 -5l-72 -193 h116q8 0 8 -10l-12 -62q-1 -10 -12 -10h-129l-54 -147h114q8 0 8 -11l-12 -61q-1 -10 -12 -10h-128l-71 -193q-3 -10 -13 -10h-70q-7 0 -7 10zM328 432l-54 -147h167l54 147h-167z" />
<glyph unicode="$" horiz-adv-x="603" d="M89 510q0 100 70 156t176 60l16 83q1 10 13 10h65q8 0 8 -10l-17 -88q72 -16 111.5 -62.5t39.5 -107.5q0 -15 -1 -24q-1 -10 -12 -10h-68q-8 0 -8 10q1 5 1 16q0 73 -80 95l-46 -241q90 -27 138 -67t48 -107q0 -110 -70 -168.5t-195 -63.5l-16 -83q-1 -10 -12 -10h-66 q-8 0 -8 10l17 88q-75 14 -125 64t-50 121q0 24 2 36q1 10 13 10h67q9 0 9 -10q0 -2 -1.5 -10t-1.5 -12q0 -44 26.5 -75.5t76.5 -42.5l50 259q-170 50 -170 174zM453 207q0 72 -112 107l-47 -241q72 6 115.5 40.5t43.5 93.5zM179 527q0 -38 22.5 -62t73.5 -43l43 221 q-57 -5 -98 -33.5t-41 -82.5z" />
<glyph unicode="%" horiz-adv-x="873" d="M431 557q0 -91 -57.5 -149t-146.5 -58q-67 0 -110.5 45t-43.5 115q0 91 57 149t146 58q67 0 111 -45t44 -115zM233 413q56 0 94.5 39.5t38.5 101.5q0 47 -26.5 73.5t-69.5 26.5q-56 0 -94 -39.5t-38 -101.5q0 -47 26 -73.5t69 -26.5zM799 207q0 -91 -57.5 -149 t-146.5 -58q-67 0 -111 45t-44 115q0 91 57.5 149t146.5 58q67 0 111 -45t44 -115zM601 62q56 0 94 40t38 102q0 47 -26 73.5t-69 26.5q-56 0 -94 -39.5t-38 -101.5q0 -47 26 -74t69 -27zM70 43l697 671q3 3 7 3t7 -3l23 -26q4 -4 4 -7t-4 -7l-698 -671q-3 -3 -7 -3t-7 3 l-22 26q-4 4 -4 7t4 7z" />
<glyph unicode="&#x26;" horiz-adv-x="688" d="M544 286q-26 -93 -64 -151l62 -119q3 -6 3 -9q0 -7 -9 -7h-76q-6 0 -11 9l-31 57q-86 -76 -200 -76q-77 0 -132.5 50t-55.5 130q0 163 193 248q-33 60 -33 118q0 83 55 137t145 54q67 0 110 -38t43 -98q0 -113 -136 -173l-69 -31l98 -176q28 61 46 147q1 10 12 10h147 q8 0 8 -11l-11 -61q-1 -10 -12 -10h-82zM226 70q85 0 154 66l-120 214q-140 -61 -140 -172q0 -47 30.5 -77.5t75.5 -30.5zM378 651q-42 0 -73 -27t-31 -74q0 -40 20 -84l8 -14l76 31q81 36 81 95q0 34 -21.5 53.5t-59.5 19.5z" />
<glyph unicode="'" horiz-adv-x="196" d="M75 492l42 215q1 10 12 10h61q9 0 9 -10l-42 -215q-2 -11 -13 -11h-61q-8 0 -8 11z" />
<glyph unicode="(" horiz-adv-x="396" d="M175 329l-28 -141q-16 -86 -16 -136q0 -56 21.5 -94t81.5 -100q4 -4 4 -6q0 -4 -5 -9l-42 -48q-4 -5 -8 -5q-3 0 -7 4q-68 66 -100.5 124.5t-32.5 128.5q0 50 11 110l40 203q17 87 47.5 147t77.5 106t135 110q4 3 7 3q4 0 7 -4l35 -49q3 -5 3 -6q0 -5 -6 -9 q-116 -85 -158.5 -145t-66.5 -184z" />
<glyph unicode=")" horiz-adv-x="396" d="M187 187l28 141q16 86 16 136q0 56 -21.5 94t-81.5 100q-3 3 -3 7t4 8l42 48q4 5 8 5q3 0 7 -4q68 -66 100.5 -124.5t32.5 -128.5q0 -50 -11 -110l-40 -203q-17 -87 -47.5 -147t-77.5 -106t-135 -110q-4 -3 -7 -3t-6 4l-36 49q-2 3 -2 6q0 5 5 9q116 85 158.5 145 t66.5 184z" />
<glyph unicode="*" horiz-adv-x="459" d="M87 565l21 49q3 8 8 8q3 0 6 -1l107 -37l28 123q3 10 12 10h52q8 0 8 -10l-24 -125l119 35q3 1 6 1t6 -8l15 -49q1 -4 1 -6q0 -5 -8 -8l-135 -40l55 -96q1 -3 1 -5q0 -6 -8 -11l-43 -28q-4 -2 -6 -2q-4 0 -8 6l-56 95l-82 -97q-5 -5 -8 -5q-4 0 -8 3l-42 34q-3 3 -3 7 t4 8l89 100l-103 36q-6 2 -6 6q0 2 2 7z" />
<glyph unicode="+" horiz-adv-x="601" d="M385 566l-35 -176h176q9 0 9 -10l-12 -59q-2 -11 -12 -11h-176l-35 -176q-1 -10 -11 -10h-64q-9 0 -9 10l35 176h-176q-8 0 -8 11l11 59q1 10 12 10h176l35 176q2 11 11 11h64q9 0 9 -11z" />
<glyph unicode="," horiz-adv-x="279" d="M23 -55q30 0 40.5 7.5t15.5 35.5l2 12h-47q-8 0 -8 10l15 78q1 10 12 10h80q8 0 8 -10l-21 -107q-8 -40 -27 -56.5t-56 -16.5h-22q-8 0 -8 10l3 16q3 11 13 11z" />
<glyph unicode="-" horiz-adv-x="537" d="M90 390h373q8 0 8 -10l-11 -59q-2 -11 -13 -11h-372q-8 0 -8 11l11 59q1 10 12 10z" />
<glyph unicode="." horiz-adv-x="279" d="M53 98h80q8 0 8 -10l-15 -78q-1 -10 -12 -10h-80q-8 0 -8 10l15 78q1 10 12 10z" />
<glyph unicode="/" horiz-adv-x="516" d="M-57 10l491 697q7 10 17 10h74q6 0 6 -4q0 -3 -2 -6l-491 -697q-7 -10 -16 -10h-75q-6 0 -6 4q0 3 2 6z" />
<glyph unicode="0" horiz-adv-x="644" d="M38 273q0 83 21.5 161.5t62 145t108.5 107t153 40.5q97 0 158.5 -74t61.5 -210q0 -83 -21.5 -161.5t-62 -144.5t-108.5 -106.5t-153 -40.5q-97 0 -158.5 73.5t-61.5 209.5zM374 647q-61 0 -110 -33.5t-78.5 -88.5t-44.5 -119.5t-15 -132.5q0 -203 141 -203q61 0 110 33.5 t78.5 88t44.5 119t15 132.5q0 204 -141 204z" />
<glyph unicode="1" horiz-adv-x="399" d="M116 10l115 591l-151 -73q-7 -3 -12 -3q-6 0 -6 10l14 70q3 10 14 16l184 91q8 5 17 5h41q8 0 8 -10l-136 -697q-1 -10 -13 -10h-67q-8 0 -8 10z" />
<glyph unicode="2" horiz-adv-x="618" d="M9 10l9 43q3 15 15 24l336 280q55 46 78.5 83t23.5 91q0 53 -31.5 84.5t-88.5 31.5q-65 0 -107.5 -39t-53.5 -99q-2 -15 -16 -15h-58q-11 0 -11 8q0 2 1 7q19 101 82 159.5t174 58.5q88 0 142.5 -53.5t54.5 -132.5q0 -70 -35 -127t-102 -113l-266 -221h325q8 0 8 -10 l-12 -60q-1 -10 -12 -10h-448q-8 0 -8 10z" />
<glyph unicode="3" horiz-adv-x="611" d="M227 353l11 58q2 11 14 11h52q65 0 110.5 31t45.5 93q0 47 -28.5 74t-83.5 27t-96 -31.5t-58 -85.5q-3 -12 -16 -12h-59q-13 0 -10 18q23 88 87.5 139.5t159.5 51.5q85 0 136.5 -45.5t51.5 -116.5q0 -130 -121 -178q40 -17 65.5 -54.5t25.5 -95.5q0 -122 -72.5 -184.5 t-197.5 -62.5q-91 0 -151.5 55.5t-60.5 137.5q0 10 2 28q3 17 16 17h55q12 0 12 -13q0 -3 -0.5 -11t-0.5 -13q0 -56 34.5 -88.5t102.5 -32.5q82 0 127.5 41t45.5 117q0 55 -33 84.5t-97 29.5h-58q-11 0 -11 11z" />
<glyph unicode="4" horiz-adv-x="602" d="M294 10l27 137h-310q-7 0 -7 11l7 38q2 10 13 23l417 490q6 8 16 8h53q8 0 8 -10l-93 -480h98q8 0 8 -10l-12 -59q-2 -11 -12 -11h-98l-27 -137q-1 -10 -13 -10h-67q-8 0 -8 10zM397 543l-263 -316h203z" />
<glyph unicode="5" horiz-adv-x="632" d="M81 334l115 373q3 10 12 10h381q8 0 8 -10l-12 -60q-1 -10 -13 -10h-312l-70 -212q78 50 165 50q90 0 140.5 -52t50.5 -148q0 -128 -78 -206.5t-212 -78.5q-87 0 -145 52t-58 131q0 13 2 27q3 15 16 15h56q10 0 10 -15q0 -60 34 -95t96 -35q84 0 136.5 53t52.5 139 q0 133 -129 133q-75 0 -155 -62q-11 -9 -19 -9h-64q-8 0 -8 10z" />
<glyph unicode="6" d="M58 228q0 77 12.5 148.5t39.5 135.5t66 111.5t96 75.5t125 28q87 0 140.5 -50t53.5 -128q-2 -10 -13 -10h-62q-9 0 -9 10q-4 52 -37.5 77t-81.5 25q-77 0 -133.5 -64.5t-82.5 -196.5q74 73 184 73q84 0 138.5 -56t54.5 -153q0 -120 -77 -192t-206 -72q-92 0 -150 63.5 t-58 174.5zM332 383q-79 0 -132.5 -48.5t-53.5 -128.5q0 -63 35.5 -99.5t96.5 -36.5q79 0 131 49.5t52 130.5q0 60 -33.5 96.5t-95.5 36.5z" />
<glyph unicode="7" horiz-adv-x="516" d="M81 647l12 60q1 10 12 10h436q8 0 8 -10l-8 -39q-2 -10 -11 -26l-361 -635q-4 -7 -13 -7h-68q-8 0 -8 7q0 2 3 8l352 622h-346q-8 0 -8 10z" />
<glyph unicode="8" horiz-adv-x="616" d="M125 507q0 100 70.5 160t177.5 60q85 0 136.5 -45.5t51.5 -121.5q0 -121 -120 -179q79 -57 79 -147q0 -118 -77.5 -181t-197.5 -63q-92 0 -149 50.5t-57 134.5q0 71 38.5 124t107.5 82q-26 20 -43 54.5t-17 71.5zM303 338q-74 0 -125 -39.5t-51 -112.5q0 -54 34 -85 t92 -31q74 0 126.5 40.5t52.5 113.5q0 51 -34.5 82.5t-94.5 31.5zM366 647q-62 0 -109.5 -34.5t-47.5 -97.5q0 -43 28.5 -71t81.5 -28q63 0 110.5 35t47.5 98q0 49 -29.5 73.5t-81.5 24.5z" />
<glyph unicode="9" d="M580 488q0 -97 -20.5 -184t-60.5 -158.5t-106.5 -113.5t-151.5 -42q-87 0 -140.5 50t-53.5 128q2 10 13 10h62q9 0 9 -10q4 -52 37.5 -77t81.5 -25q77 0 133.5 64.5t82.5 196.5q-74 -73 -184 -73q-84 0 -138.5 56t-54.5 153q0 120 77 192t206 72q92 0 150 -64t58 -175z M306 334q79 0 132.5 48.5t53.5 128.5q0 63 -35.5 99.5t-96.5 36.5q-79 0 -131 -49.5t-52 -130.5q0 -60 33.5 -96.5t95.5 -36.5z" />
<glyph unicode=":" horiz-adv-x="279" d="M53 98h80q8 0 8 -10l-15 -78q-3 -10 -12 -10h-80q-8 0 -8 10l15 78q1 10 12 10zM135 514h80q8 0 8 -10l-15 -78q-1 -10 -12 -10h-80q-8 0 -8 10l15 78q1 10 12 10z" />
<glyph unicode=";" horiz-adv-x="279" d="M135 514h80q8 0 8 -10l-15 -78q-1 -10 -12 -10h-80q-8 0 -8 10l15 78q1 10 12 10zM23 -55q30 0 40.5 7.5t15.5 35.5l2 12h-47q-8 0 -8 10l15 78q1 10 12 10h80q8 0 8 -10l-21 -107q-8 -40 -27 -56.5t-56 -16.5h-22q-8 0 -8 10l3 16q3 11 13 11z" />
<glyph unicode="&#x3c;" horiz-adv-x="526" d="M419 125l-12 -65q-1 -7 -7 -7q-3 0 -7 2l-328 199q-9 5 -9 13l16 76q1 8 12 13l409 200q2 1 5 1q4 0 4 -7l-15 -75q-1 -8 -13 -14l-335 -161l273 -161q7 -5 7 -14z" />
<glyph unicode="=" horiz-adv-x="633" d="M124 452h432q8 0 8 -11l-11 -59q-3 -10 -12 -10h-432q-9 0 -9 10l12 59q2 11 12 11zM83 244h432q8 0 8 -11l-11 -59q-1 -10 -12 -10h-432q-9 0 -9 10l12 59q2 11 12 11z" />
<glyph unicode="&#x3e;" horiz-adv-x="526" d="M109 485l12 65q1 7 6 7q3 0 7 -2l329 -199q8 -5 8 -13l-15 -76q-1 -8 -13 -13l-408 -200q-2 -1 -5 -1q-4 0 -4 7l14 75q1 9 13 15l335 160l-272 161q-7 5 -7 14z" />
<glyph unicode="?" horiz-adv-x="560" d="M88 524q23 89 90.5 146t168.5 57q82 0 134.5 -45t52.5 -124q0 -46 -21.5 -82.5t-53.5 -62t-65 -48.5t-59.5 -53.5t-33.5 -65.5l-7 -38q-1 -10 -12 -10h-70q-8 0 -8 10l6 31q10 52 38.5 92t60.5 63.5t62.5 45.5t51 49.5t20.5 63.5q0 43 -28 67.5t-79 24.5q-55 0 -97 -31 t-63 -90q-3 -10 -12 -10h-68q-8 0 -8 10zM185 102h86q9 0 9 -10l-17 -82q-1 -10 -12 -10h-86q-8 0 -8 10l16 82q1 10 12 10z" />
<glyph unicode="@" horiz-adv-x="827" d="M717 368q0 115 -66 176t-191 61q-158 0 -253.5 -99.5t-95.5 -245.5q0 -135 78 -213.5t192 -78.5q118 0 205 46q2 1 5 1q4 0 6 -5l20 -45q1 -2 1 -4q0 -3 -7 -8q-99 -48 -233 -48q-138 0 -238.5 96.5t-100.5 254.5q0 179 115.5 296t316.5 117q136 0 225.5 -82t89.5 -206 t-52 -208t-143 -84q-34 0 -59 17.5t-33 45.5q-67 -63 -147 -63q-65 0 -106 45.5t-41 116.5q0 104 65.5 174t164.5 70q81 0 115 -60l14 44q3 8 10 8h48q6 0 6 -8l-65 -215q-11 -36 -11 -64q0 -54 48 -54q54 0 85.5 68t31.5 154zM517 335q0 102 -82 102q-76 0 -118 -54.5 t-42 -128.5q0 -52 24 -80t62 -28q73 0 114.5 62t41.5 127z" />
<glyph unicode="A" horiz-adv-x="627" d="M466 10l-32 198h-293l-109 -198q-6 -10 -15 -10h-74q-10 0 -10 8q0 3 4 9l387 690q6 10 14 10h88q9 0 10 -10l120 -695q0 -12 -12 -12h-68q-9 0 -10 10zM367 613l-181 -323h234z" />
<glyph unicode="B" horiz-adv-x="655" d="M37 0q-8 0 -8 10l136 697q1 10 12 10h251q82 0 132 -39t50 -115q0 -123 -121 -182q88 -46 88 -137q0 -103 -74 -173.5t-186 -70.5h-280zM182 336l-48 -251h187q72 0 118.5 39.5t46.5 105.5q0 106 -117 106h-187zM240 632l-41 -214h182q59 0 98 32.5t39 90.5 q0 44 -25.5 67.5t-70.5 23.5h-182z" />
<glyph unicode="C" horiz-adv-x="706" d="M575 249h68q9 0 9 -10q-40 -121 -128.5 -185t-212.5 -64q-117 0 -194.5 81.5t-77.5 215.5q0 188 107.5 314t290.5 126q116 0 188 -67t72 -171v-11q0 -10 -13 -10h-63q-10 0 -11 10q-14 167 -186 167q-130 0 -211.5 -103t-81.5 -242q0 -110 52 -169t136 -59 q91 0 145.5 39.5t96.5 127.5q4 10 14 10z" />
<glyph unicode="D" horiz-adv-x="688" d="M29 10l136 697q1 10 12 10h197q120 0 197 -72t77 -205q0 -188 -112 -314t-296 -126h-203q-8 0 -8 10zM351 635h-110l-108 -553h111q139 0 225.5 100t86.5 245q0 102 -55.5 155t-149.5 53z" />
<glyph unicode="E" horiz-adv-x="582" d="M182 336l-49 -254h342q8 0 8 -10l-12 -62q-2 -10 -12 -10h-422q-8 0 -8 10l136 697q1 10 12 10h407q8 0 8 -10l-12 -62q-1 -10 -13 -10h-326l-42 -217h296q8 0 8 -10l-13 -62q-1 -10 -12 -10h-296z" />
<glyph unicode="F" horiz-adv-x="580" d="M179 321l-60 -311q-1 -10 -13 -10h-69q-8 0 -8 10l136 697q1 10 12 10h421q8 0 8 -10l-12 -62q-1 -10 -12 -10h-341l-45 -233h308q8 0 8 -10l-12 -61q-1 -10 -13 -10h-308z" />
<glyph unicode="G" horiz-adv-x="737" d="M386 365h280q8 0 8 -11l-35 -178q-4 -21 -18 -39q-115 -147 -304 -147q-123 0 -200.5 77.5t-77.5 225.5q0 115 47.5 213t140.5 159.5t213 61.5q111 0 182.5 -58.5t71.5 -156.5q-2 -10 -13 -10h-68q-10 0 -10 10q-7 133 -176 133q-130 0 -213 -105t-83 -247 q0 -102 52 -161.5t146 -59.5q139 0 221 105l21 106h-201q-9 0 -9 10l13 61q2 11 12 11z" />
<glyph unicode="H" horiz-adv-x="717" d="M182 333l-63 -323q-1 -10 -13 -10h-69q-8 0 -8 10l136 697q1 10 12 10h70q8 0 8 -10l-57 -292h344l57 292q1 10 12 10h70q8 0 8 -10l-136 -697q-1 -10 -12 -10h-70q-8 0 -8 10l63 323h-344z" />
<glyph unicode="I" horiz-adv-x="283" d="M29 10l136 697q1 10 12 10h70q8 0 8 -10l-136 -697q-1 -10 -13 -10h-69q-8 0 -8 10z" />
<glyph unicode="J" horiz-adv-x="580" d="M554 707l-89 -454q-29 -148 -96 -205.5t-180 -57.5q-89 0 -142 50.5t-53 130.5q0 26 4 47q1 10 12 10h67q8 0 8 -10q-4 -28 -4 -37q0 -50 30 -79.5t87 -29.5q74 0 116 42t61 138l89 455q1 10 12 10h70q8 0 8 -10z" />
<glyph unicode="K" horiz-adv-x="641" d="M255 707l-59 -303l342 303q10 10 18 10h88q8 0 8 -6q0 -5 -5 -10l-275 -249l187 -438q1 -2 1 -4q0 -10 -11 -10h-76q-9 0 -15 15l-161 371l-127 -114l-51 -262q-1 -10 -13 -10h-69q-8 0 -8 10l136 697q1 10 12 10h70q8 0 8 -10z" />
<glyph unicode="L" horiz-adv-x="561" d="M29 10l136 697q1 10 12 10h70q8 0 8 -10l-122 -625h362q8 0 8 -10l-13 -62q-1 -10 -12 -10h-441q-8 0 -8 10z" />
<glyph unicode="M" horiz-adv-x="838" d="M810 707l-136 -697q-1 -10 -12 -10h-70q-8 0 -8 10l111 573l-279 -454q-5 -9 -16 -9h-45q-9 0 -11 9l-114 454l-111 -573q-1 -10 -13 -10h-69q-8 0 -8 10l136 697q1 10 12 10h97q12 0 15 -10l109 -456l281 456q6 10 18 10h105q8 0 8 -10z" />
<glyph unicode="N" horiz-adv-x="734" d="M557 0h-78q-12 0 -14 8l-235 574l-111 -572q-1 -10 -13 -10h-69q-8 0 -8 10l136 697q1 10 12 10h78q12 0 14 -8l235 -574l111 572q1 10 13 10h69q9 0 9 -10l-137 -697q-1 -10 -12 -10z" />
<glyph unicode="O" horiz-adv-x="769" d="M335 -10q-136 0 -216 81t-80 220q0 84 27 162t76.5 139.5t125 98t165.5 36.5q136 0 216 -81t80 -220q0 -84 -27 -162t-76.5 -139.5t-125 -98t-165.5 -36.5zM340 72q133 0 215 103t82 245q0 106 -56 165.5t-153 59.5q-133 0 -215 -103t-82 -245q0 -106 56 -165.5 t153 -59.5z" />
<glyph unicode="P" horiz-adv-x="633" d="M29 10l136 697q1 10 12 10h246q96 0 151 -43.5t55 -119.5q0 -113 -74.5 -175t-203.5 -62h-172l-60 -307q-1 -10 -13 -10h-69q-8 0 -8 10zM241 635l-46 -236h185q71 0 114 36t43 107q0 45 -29 69t-85 24h-182z" />
<glyph unicode="Q" horiz-adv-x="769" d="M335 -10q-136 0 -216 81t-80 220q0 84 27 162t76.5 139.5t125 98t165.5 36.5q136 0 216 -81t80 -220q0 -92 -32 -177t-92 -147l41 -49q3 -4 3 -7q-2 -4 -6 -7l-55 -48q-5 -4 -8 -4q-4 0 -7 4l-43 51q-87 -52 -195 -52zM340 72q77 0 136 34l-63 77q-3 3 -3 7q0 3 5 8 l55 48q5 4 8 4t6 -4l66 -78q87 101 87 252q0 106 -56 165.5t-153 59.5q-133 0 -215 -103t-82 -245q0 -106 56 -165.5t153 -59.5z" />
<glyph unicode="R" horiz-adv-x="650" d="M29 10l136 697q1 10 12 10h257q87 0 136.5 -42t49.5 -114q0 -82 -46 -136t-130 -78l92 -336q1 -3 1 -6q0 -5 -9 -5h-74q-10 0 -13 10l-88 328h-170l-64 -328q-1 -10 -13 -10h-69q-8 0 -8 10zM241 635l-42 -215h182q65 0 106.5 32t41.5 95q0 88 -106 88h-182z" />
<glyph unicode="S" horiz-adv-x="603" d="M89 510q0 104 75.5 160.5t188.5 56.5q103 0 160.5 -51t57.5 -125q0 -15 -1 -24q-1 -10 -12 -10h-68q-8 0 -8 10q1 7 1 16q0 47 -36.5 74.5t-101.5 27.5q-40 0 -75.5 -10t-63 -38t-27.5 -70q0 -49 37 -75t126 -51q98 -27 149.5 -67.5t51.5 -110.5q0 -116 -77.5 -174.5 t-211.5 -58.5q-98 0 -167 53t-69 138q0 24 2 36q1 10 13 10h67q9 0 9 -10q0 -2 -1.5 -10t-1.5 -12q0 -55 41.5 -89t115.5 -34q83 0 136.5 35.5t53.5 99.5q0 48 -41 75.5t-122 46.5q-201 47 -201 181z" />
<glyph unicode="T" horiz-adv-x="529" d="M56 645l13 62q1 10 12 10h496q8 0 8 -10l-13 -62q-1 -10 -12 -10h-203l-121 -625q-1 -10 -13 -10h-69q-9 0 -9 10l122 625h-202q-9 0 -9 10z" />
<glyph unicode="U" horiz-adv-x="674" d="M67 265l86 442q1 10 12 10h69q9 0 9 -10l-87 -448q-6 -35 -6 -63q0 -124 133 -124q162 0 200 187l87 448q1 10 13 10h69q8 0 8 -10l-90 -459q-27 -137 -101.5 -197.5t-202.5 -60.5q-93 0 -150 53t-57 150q0 32 8 72z" />
<glyph unicode="V" horiz-adv-x="614" d="M678 707l-382 -697q-5 -10 -13 -10h-100q-8 0 -9 10l-114 697q0 10 11 10h77q10 0 11 -10l91 -605l320 605q4 10 15 10h87q7 0 7 -5q0 -2 -1 -5z" />
<glyph unicode="W" horiz-adv-x="881" d="M916 707l-296 -697q-4 -10 -14 -10h-95q-8 0 -9 10l-32 522l-233 -522q-4 -10 -14 -10h-93q-8 0 -9 10l-34 697q0 10 10 10h72q10 0 10 -10l21 -589l238 539q6 11 15 11h76q11 0 11 -11l37 -539l244 589q4 10 15 10h74q8 0 8 -5l-1 -2q-1 -2 -1 -3z" />
<glyph unicode="X" horiz-adv-x="599" d="M208 707l119 -256l212 256q9 10 16 10h85q7 0 7 -5q0 -2 -2 -5l-280 -335l167 -362l2 -4q0 -6 -8 -6h-80q-7 0 -12 10l-134 295l-245 -295q-9 -10 -19 -10h-85q-7 0 -7 5q0 3 2 5l313 376l-150 321q-1 2 -1 4q0 6 7 6h80q9 0 13 -10z" />
<glyph unicode="Y" horiz-adv-x="540" d="M600 707l-311 -443l-50 -254q-1 -10 -13 -10h-69q-9 0 -9 10l51 254l-140 443q0 10 9 10h80q7 0 10 -8l101 -344l239 344q5 8 13 8h85q6 0 6 -5q0 -2 -2 -5z" />
<glyph unicode="Z" horiz-adv-x="615" d="M120 645l12 62q1 10 12 10h461q8 0 8 -10l-12 -62q-1 -7 -9 -17l-492 -546h403q8 0 8 -10l-12 -62q-1 -10 -13 -10h-498q-8 0 -8 10l12 62q1 7 9 17l492 546h-365q-8 0 -8 10z" />
<glyph unicode="[" horiz-adv-x="457" d="M19 -193l176 900q1 10 12 10h257q8 0 8 -10l-12 -62q-1 -10 -13 -10h-177l-146 -756h177q8 0 8 -10l-12 -62q-1 -10 -12 -10h-257q-9 0 -9 10z" />
<glyph unicode="\" horiz-adv-x="308" d="M89 707l219 -697q0 -10 -9 -10h-69q-8 0 -11 10l-219 697q0 10 8 10h69q9 0 12 -10z" />
<glyph unicode="]" horiz-adv-x="457" d="M398 707l-175 -900q-1 -10 -12 -10h-257q-8 0 -8 10l12 62q1 10 12 10h177l147 756h-177q-8 0 -8 10l12 62q1 10 12 10h257q8 0 8 -10z" />
<glyph unicode="^" horiz-adv-x="573" d="M117 380h-77q-7 0 -7 5q0 2 2 5l256 317q8 10 14 10h84q8 0 12 -10l129 -317q1 -2 1 -3q0 -7 -8 -7h-67q-10 0 -14 10l-104 259l-204 -259q-7 -10 -17 -10z" />
<glyph unicode="_" horiz-adv-x="475" d="M-27 0h421q8 0 8 -10l-11 -60q-1 -10 -12 -10h-421q-8 0 -8 10l11 60q1 10 12 10z" />
<glyph unicode="`" horiz-adv-x="304" d="M216 707l45 -129q1 -3 1 -6q0 -5 -6 -5h-61q-10 0 -17 10l-80 130q-1 2 -1 4q0 6 8 6h98q9 0 13 -10z" />
<glyph unicode="a" horiz-adv-x="619" d="M560 504l-95 -494q-3 -10 -12 -10h-64q-8 0 -8 10l8 41q-37 -34 -72.5 -47.5t-90.5 -13.5q-90 0 -143.5 63t-53.5 165q0 124 76 215t209 91q100 0 154 -65l8 45q1 10 12 10h64q8 0 8 -10zM245 66q87 0 142 72t55 172q0 64 -35.5 101.5t-98.5 37.5q-87 0 -139 -69 t-52 -162q0 -71 33.5 -111.5t94.5 -40.5z" />
<glyph unicode="b" horiz-adv-x="631" d="M31 10l136 697q1 10 12 10h64q8 0 8 -10l-48 -247q71 64 168 64q84 0 139.5 -57t55.5 -156q0 -136 -78 -228.5t-209 -92.5q-49 0 -92 19.5t-62 48.5l-10 -48q-1 -10 -13 -10h-63q-8 0 -8 10zM351 449q-89 0 -145 -71.5t-56 -165.5q0 -67 35.5 -106.5t93.5 -39.5 q92 0 145.5 70t53.5 166q0 69 -32.5 108t-94.5 39z" />
<glyph unicode="c" horiz-adv-x="574" d="M319 449q-88 0 -145 -66.5t-57 -163.5q0 -153 136 -153q102 0 156 102q5 9 15 9h64q7 0 7 -6q0 -4 -3 -10q-37 -84 -97.5 -127.5t-155.5 -43.5q-98 0 -154 64t-56 164q0 131 85.5 218.5t218.5 87.5q86 0 140 -50t56 -126q0 -11 -9 -11h-62q-12 0 -14 9q-13 103 -125 103z " />
<glyph unicode="d" horiz-adv-x="623" d="M599 707l-136 -697q-1 -10 -12 -10h-64q-8 0 -8 10l9 44q-64 -64 -162 -64q-89 0 -143 59.5t-54 155.5q0 81 32 152.5t98.5 119t153.5 47.5q95 0 153 -67l49 250q1 10 12 10h64q8 0 8 -10zM241 66q91 0 145 69.5t54 165.5q0 71 -36 109.5t-96 38.5q-90 0 -140.5 -72 t-50.5 -170q0 -64 32 -102.5t92 -38.5z" />
<glyph unicode="e" horiz-adv-x="598" d="M518 232h-399q-2 -14 -2 -26q0 -65 34 -102.5t100 -37.5q104 0 167 94q6 9 16 9h67q5 0 5 -5q0 -4 -4 -12q-82 -162 -262 -162q-99 0 -155 65t-56 166q0 124 86 213.5t218 89.5q96 0 151 -60.5t55 -154.5q0 -26 -5 -50l-4 -16q-3 -11 -12 -11zM318 449q-60 0 -109 -36 t-76 -105h322q0 67 -36 104t-101 37z" />
<glyph unicode="f" horiz-adv-x="374" d="M369 438h-158l-84 -428q-1 -10 -12 -10h-64q-8 0 -8 10l84 428h-84q-8 0 -8 11l10 55q1 10 12 10h84l14 66q30 147 172 147q44 0 98 -26q7 -4 7 -14l-10 -50q-2 -9 -9 -9q-3 0 -7 2q-45 21 -85 21q-69 0 -84 -79l-12 -58h158q8 0 8 -10l-10 -55q-3 -11 -12 -11z" />
<glyph unicode="g" horiz-adv-x="623" d="M203 -213q-84 0 -135.5 41.5t-51.5 108.5v17q3 10 13 10h63q8 0 8 -10q0 -47 26 -69t91 -22q139 0 170 166l5 26q-75 -53 -164 -53q-83 0 -135 57.5t-52 163.5q0 122 77.5 211.5t204.5 89.5q105 0 148 -66l9 46q1 10 13 10h63q8 0 8 -10l-92 -473q-48 -244 -269 -244z M258 78q86 0 137 67t51 160q0 68 -33.5 106t-94.5 38q-86 0 -137.5 -65t-51.5 -161q0 -69 34 -107t95 -38z" />
<glyph unicode="h" horiz-adv-x="621" d="M31 10l136 697q1 10 12 10h64q8 0 8 -10l-50 -262q87 79 187 79q71 0 111 -36t40 -98q0 -25 -3 -43l-68 -337q-1 -10 -12 -10h-64q-8 0 -8 10l60 317q5 28 5 41q0 37 -25.5 59t-70.5 22q-60 0 -115.5 -51.5t-72.5 -133.5l-50 -254q-1 -10 -13 -10h-63q-8 0 -8 10z" />
<glyph unicode="i" horiz-adv-x="274" d="M31 10l96 494q1 10 12 10h64q8 0 8 -10l-96 -494q-1 -10 -13 -10h-63q-8 0 -8 10zM135 618l18 89q1 10 12 10h92q8 0 8 -10l-17 -89q-1 -10 -12 -10h-93q-8 0 -8 10z" />
<glyph unicode="j" horiz-adv-x="274" d="M22 -40l105 544q1 10 12 10h64q8 0 8 -10l-103 -532q-19 -101 -66 -177q-5 -8 -9 -8q-1 0 -7 2l-56 20q-6 2 -6 6q0 2 2 6q43 74 56 139zM135 618l18 89q1 10 12 10h92q8 0 8 -10l-17 -89q-1 -10 -12 -10h-93q-8 0 -8 10z" />
<glyph unicode="k" horiz-adv-x="558" d="M540 499l-215 -171l136 -313q1 -3 1 -7q0 -8 -11 -8h-69q-10 0 -14 9l-113 264l-105 -84l-35 -179q-1 -10 -13 -10h-63q-8 0 -8 10l136 697q1 10 12 10h64q8 0 8 -10l-79 -405l258 203q11 9 19 9h90q7 0 7 -6q0 -4 -6 -9z" />
<glyph unicode="l" horiz-adv-x="275" d="M31 10l136 697q1 10 12 10h64q8 0 8 -10l-136 -697q-1 -10 -13 -10h-63q-8 0 -8 10z" />
<glyph unicode="m" horiz-adv-x="838" d="M31 10l95 494q1 10 12 10h64q8 0 8 -10l-8 -51q25 32 64 51.5t82 19.5q52 0 81 -20t41 -61q64 81 158 81q61 0 94.5 -28.5t33.5 -83.5q0 -15 -5 -45l-69 -357q-3 -10 -12 -10h-64q-8 0 -8 10l67 342q3 13 3 27q0 70 -75 70q-49 0 -89 -50t-55 -129l-51 -260 q-3 -10 -12 -10h-63q-9 0 -9 10l67 342q3 16 3 30q0 67 -71 67q-50 0 -91 -48.5t-57 -130.5l-50 -260q-3 -10 -13 -10h-63q-8 0 -8 10z" />
<glyph unicode="n" horiz-adv-x="609" d="M31 10l95 494q3 10 12 10h64q8 0 8 -10l-11 -59q81 79 175 79q73 0 112.5 -35t39.5 -99q0 -16 -6 -52l-63 -328q-1 -10 -13 -10h-63q-8 0 -8 10l61 316q4 23 4 39q0 84 -93 84q-60 0 -112 -49.5t-69 -137.5l-49 -252q-3 -10 -13 -10h-63q-8 0 -8 10z" />
<glyph unicode="o" horiz-adv-x="622" d="M29 202q0 135 87 228.5t221 93.5q99 0 159.5 -58.5t60.5 -153.5q0 -135 -87 -228.5t-221 -93.5q-99 0 -159.5 58.5t-60.5 153.5zM328 449q-91 0 -151 -70.5t-60 -169.5q0 -66 38 -104.5t103 -38.5q91 0 151 70t60 169q0 67 -38 105.5t-103 38.5z" />
<glyph unicode="p" horiz-adv-x="627" d="M-8 -193l136 697q1 10 12 10h64q8 0 8 -10l-9 -44q64 64 162 64q89 0 143 -59.5t54 -155.5q0 -81 -32 -152.5t-98.5 -119t-153.5 -47.5q-95 0 -153 67l-49 -250q-1 -10 -13 -10h-63q-8 0 -8 10zM350 449q-91 0 -145 -70t-54 -166q0 -71 35.5 -109t96.5 -38 q90 0 140.5 71.5t50.5 169.5q0 64 -32 103t-92 39z" />
<glyph unicode="q" horiz-adv-x="623" d="M564 504l-136 -697q-1 -10 -12 -10h-64q-8 0 -8 10l48 247q-71 -64 -168 -64q-84 0 -139.5 57t-55.5 156q0 136 78 228.5t209 92.5q49 0 92 -19.5t62 -48.5l10 48q1 10 13 10h63q8 0 8 -10zM244 66q89 0 145 71t56 165q0 67 -35.5 107t-93.5 40q-91 0 -144 -70t-53 -167 q0 -69 31.5 -107.5t93.5 -38.5z" />
<glyph unicode="r" horiz-adv-x="452" d="M456 489l-13 -61q-2 -11 -12 -11q-5 0 -12 4q-48 28 -89 28q-55 0 -101 -46.5t-59 -113.5l-54 -279q-3 -10 -13 -10h-63q-8 0 -8 10l95 494q3 10 12 10h64q8 0 8 -10l-9 -51q66 71 163 71q42 0 79 -15q13 -6 13 -12q0 -3 -1 -8z" />
<glyph unicode="s" horiz-adv-x="518" d="M436 165q0 -87 -66 -131t-167 -44q-84 0 -135 42.5t-51 109.5v15q0 10 11 10h65q8 0 8 -10q0 -91 113 -91q31 0 59 6.5t51.5 26.5t23.5 52q0 31 -31.5 50t-100.5 30q-72 12 -111.5 46t-39.5 84q0 82 61.5 122.5t154.5 40.5q85 0 132.5 -41t47.5 -106q0 -10 -12 -10h-58 q-7 0 -8 10q-3 37 -35 54.5t-78 17.5q-50 0 -86 -18.5t-36 -58.5q0 -32 28.5 -48t99.5 -30q74 -14 117 -43.5t43 -85.5z" />
<glyph unicode="t" horiz-adv-x="422" d="M225 514h170q8 0 8 -10l-10 -55q-3 -11 -12 -11h-170l-55 -284q-3 -15 -3 -30q0 -58 66 -58q49 0 100 17q3 1 8 1q6 0 6 -9l-10 -50q-3 -15 -12 -18q-49 -17 -117 -17q-63 0 -96 28.5t-33 82.5q0 20 8 60l54 277h-87q-8 0 -8 11l10 55q3 10 12 10h87l29 148q1 10 12 10 h64q8 0 8 -10z" />
<glyph unicode="u" horiz-adv-x="603" d="M544 504l-95 -494q-3 -10 -13 -10h-63q-8 0 -8 10l11 59q-81 -79 -175 -79q-73 0 -113 35t-40 99q0 16 6 52l64 328q1 10 12 10h64q8 0 8 -10l-62 -316q-4 -23 -4 -38q0 -84 93 -84q60 0 112.5 49t69.5 137l49 252q3 10 12 10h64q8 0 8 -10z" />
<glyph unicode="v" horiz-adv-x="480" d="M489 498l-276 -488q-7 -10 -14 -10h-75q-9 0 -10 10l-94 488q0 16 12 16h64q12 0 13 -10l68 -403l222 403q6 10 17 10h68q9 0 9 -7q0 -3 -4 -9z" />
<glyph unicode="w" horiz-adv-x="780" d="M773 499l-239 -489q-5 -10 -16 -10h-75q-10 0 -11 10l-43 374l-177 -374q-6 -10 -15 -10h-74q-10 0 -11 10l-63 489q0 15 10 15h65q11 0 12 -10l40 -395l179 370q4 10 14 10h77q9 0 10 -10l43 -370l183 395q4 10 16 10h71q7 0 7 -6q0 -3 -3 -9z" />
<glyph unicode="x" horiz-adv-x="512" d="M169 507l87 -172l156 172q6 7 15 7h76q6 0 6 -6q0 -3 -3 -7l-212 -234l135 -254q2 -4 2 -8q0 -5 -7 -5h-73q-8 0 -12 10l-102 196l-175 -196q-9 -10 -16 -10h-82q-5 0 -5 5q0 4 4 8l233 266l-118 222q-1 3 -1 6q0 7 8 7h71q10 0 13 -7z" />
<glyph unicode="y" horiz-adv-x="537" d="M135 514q10 0 11 -10l76 -395l207 395q4 10 15 10h74q6 0 6 -7q0 -3 -2 -7l-295 -550q-51 -95 -100 -129t-112 -34q-41 0 -70 16q-8 5 -8 11l1 6l10 55q3 10 10 10q2 0 22 -11t47 -11q74 0 135 128l-109 507q-1 5 -1 8q0 8 9 8h74z" />
<glyph unicode="z" horiz-adv-x="499" d="M81 449l10 55q3 10 12 10h362q8 0 8 -10l-10 -55q-2 -11 -12 -22l-352 -351h300q9 0 9 -10l-11 -56q-2 -10 -12 -10h-393q-8 0 -8 10l10 56q1 8 8 15l357 357h-270q-8 0 -8 11z" />
<glyph unicode="{" horiz-adv-x="407" d="M198 165l-35 -179q-7 -35 -7 -53q0 -29 13 -41.5t42 -12.5h40q8 0 8 -10l-12 -62q-1 -10 -13 -10h-41q-58 0 -92.5 35t-34.5 100q0 23 7 65l29 151q2 14 2 21q0 47 -53 47h-26q-9 0 -9 10l12 62q1 10 12 10h27q64 0 77 68l30 151q22 113 65.5 156.5t132.5 43.5h42 q8 0 8 -10l-12 -62q-1 -10 -13 -10h-40q-69 0 -89 -107l-35 -179q-7 -39 -25.5 -60t-55.5 -32q48 -16 48 -72q0 -7 -2 -20z" />
<glyph unicode="|" horiz-adv-x="292" d="M19 -92l155 799q1 10 12 10h70q8 0 8 -10l-154 -799q-3 -10 -13 -10h-69q-9 0 -9 10z" />
<glyph unicode="}" horiz-adv-x="407" d="M187 349l35 179q7 35 7 53q0 29 -13 41.5t-42 12.5h-40q-8 0 -8 10l12 62q1 10 13 10h42q58 0 92 -35t34 -100q0 -23 -7 -65l-29 -151q-2 -14 -2 -21q0 -47 53 -47h26q9 0 9 -10l-12 -62q-1 -10 -12 -10h-27q-64 0 -77 -68l-30 -151q-22 -113 -65.5 -156.5t-132.5 -43.5 h-42q-8 0 -8 10l12 62q1 10 13 10h40q69 0 89 107l35 179q7 39 25.5 60t55.5 32q-48 16 -48 72q0 7 2 20z" />
<glyph unicode="~" horiz-adv-x="528" d="M40 372q27 16 64.5 27t62.5 11q46 0 100 -21t89 -21q38 0 84 25q4 2 7 2q5 0 9 -8l22 -47q2 -5 2 -7q0 -8 -10 -14q-27 -16 -64 -26.5t-63 -10.5q-46 0 -100 21t-89 21q-37 0 -84 -26q-4 -2 -8 -2t-8 8l-22 47q-2 5 -2 7q0 8 10 14z" />
<glyph unicode="&#xa1;" horiz-adv-x="359" d="M112 -203h-70q-8 0 -8 10l97 499q1 10 12 10h70q8 0 8 -10l-97 -499q-1 -10 -12 -10zM240 412h-86q-9 0 -9 10l17 82q1 10 12 10h86q8 0 8 -10l-16 -82q-1 -10 -12 -10z" />
<glyph unicode="&#xa2;" horiz-adv-x="584" d="M188 10l17 87q-73 18 -113 78t-40 144q0 119 70.5 203t185.5 100l17 85q1 10 12 10h65q9 0 9 -10l-17 -84q66 -11 112 -59t47 -114q0 -12 -9 -12h-63q-11 0 -13 9q-12 85 -89 100l-74 -378q80 12 127 100q5 10 15 10h65q6 0 6 -7q0 -4 -3 -10q-70 -157 -225 -170l-16 -82 q-1 -10 -12 -10h-65q-9 0 -9 10zM140 321q0 -118 80 -146l73 368q-69 -18 -111 -79t-42 -143z" />
<glyph unicode="&#xa3;" horiz-adv-x="607" d="M36 102q103 107 103 205v11h-83q-8 0 -8 11l11 59q1 10 13 10h60q-9 39 -9 79q0 110 72 180t184 70q93 0 141 -47.5t48 -119.5q0 -24 -2 -36q-1 -10 -12 -10h-68q-8 0 -8 10q2 14 2 22q0 45 -26.5 72t-81.5 27q-69 0 -114 -45t-45 -116q0 -46 7 -86h209q8 0 8 -10 l-11 -59q-2 -11 -12 -11h-187q-2 -73 -28.5 -125t-84.5 -111h375q9 0 9 -10l-13 -62q-1 -10 -12 -10h-456q-8 0 -8 10l15 72q1 9 12 20z" />
<glyph unicode="&#xa4;" horiz-adv-x="580" d="M26 108l64 54q-18 36 -18 80q0 90 56 151l-38 46q-2 3 -2 6q0 5 5 9l42 34q5 5 7 5q3 0 8 -5l39 -48q56 28 117 28q62 0 109 -38l65 55q4 4 8 4t7 -4l32 -41q2 -3 2 -6q0 -4 -5 -8l-64 -54q18 -39 18 -79q0 -88 -53 -149l35 -42q2 -3 2 -6q0 -4 -5 -8l-42 -35 q-4 -4 -7 -4q-4 0 -8 4l-34 43q-53 -29 -122 -29q-64 0 -109 37l-65 -55q-5 -4 -9 -4q-2 0 -6 4l-32 40q-3 5 -3 6q0 5 6 9zM300 398q-65 0 -108.5 -41.5t-43.5 -105.5q0 -49 29 -80t73 -31q64 0 107.5 42t43.5 106q0 49 -28.5 79.5t-72.5 30.5z" />
<glyph unicode="&#xa5;" horiz-adv-x="570" d="M69 344h134l-114 363q0 10 8 10h82q6 0 9 -8l103 -340l237 340q5 8 14 8h84q6 0 6 -5q0 -2 -2 -5l-255 -363h142q8 0 8 -10l-11 -60q-3 -10 -12 -10h-184l-13 -68h163q8 0 8 -11l-12 -59q-1 -10 -12 -10h-163l-21 -106q-1 -10 -12 -10h-70q-8 0 -8 10l21 106h-155 q-8 0 -8 10l12 59q2 11 12 11h155l13 68h-175q-8 0 -8 10l11 60q1 10 13 10z" />
<glyph unicode="&#xa6;" horiz-adv-x="313" d="M121 328l74 379q1 10 12 10h69q9 0 9 -10l-74 -379q-2 -11 -12 -11h-70q-8 0 -8 11zM19 -193l74 379q2 11 12 11h70q8 0 8 -11l-73 -379q-1 -10 -13 -10h-69q-9 0 -9 10z" />
<glyph unicode="&#xa7;" horiz-adv-x="522" d="M406 -7q0 -98 -65.5 -152t-164.5 -54q-86 0 -137 49t-51 119v25q1 10 13 10h67q8 0 8 -10q0 -2 -0.5 -9t-0.5 -8q0 -44 28 -69t81 -25q54 0 93.5 31.5t39.5 85.5q0 39 -26 67.5t-85 64.5q-78 49 -114 89.5t-36 84.5q0 74 69 128q-30 39 -30 101q0 94 67 150t168 56 q84 0 134 -47.5t50 -116.5q0 -15 -1 -28q-2 -11 -12 -11h-68q-8 0 -8 11q1 8 1 17q0 43 -29.5 68t-80.5 25q-54 0 -93.5 -31.5t-39.5 -85.5q0 -39 26.5 -67t85.5 -65q77 -49 113 -89.5t36 -84.5q0 -75 -68 -128q30 -39 30 -101zM215 347l-32 20q-39 -27 -39 -66 q0 -26 30 -55t112 -79l31 -20q39 27 39 66q0 26 -29.5 54.5t-111.5 79.5z" />
<glyph unicode="&#xa8;" horiz-adv-x="359" d="M91 625l15 82q1 10 13 10h82q8 0 8 -10l-15 -82q-2 -11 -13 -11h-82q-8 0 -8 11zM261 625l15 82q1 10 13 10h82q8 0 8 -10l-15 -82q-2 -11 -13 -11h-82q-8 0 -8 11z" />
<glyph unicode="&#xa9;" horiz-adv-x="819" d="M410 -10q-90 0 -170 41.5t-133.5 127.5t-53.5 199q0 86 31 157.5t82.5 116.5t114.5 70t129 25t129 -25t114 -70t82 -116.5t31 -157.5t-31 -157t-82 -116.5t-114 -70t-129 -24.5zM410 33q124 0 215.5 86t91.5 239q0 104 -46 180t-114 111t-147 35q-124 0 -216 -86.5 t-92 -239.5t92 -239t216 -86zM577 283h24q11 0 11 -11q-13 -69 -68.5 -110.5t-133.5 -41.5q-87 0 -151 62.5t-64 175.5t64 176t151 63q78 0 133.5 -42t68.5 -111q0 -10 -11 -10h-24q-12 0 -15 10q-12 49 -52 79.5t-100 30.5q-68 0 -117 -52.5t-49 -143.5t49 -143t117 -52 q60 0 100 30t52 79q3 11 15 11z" />
<glyph unicode="&#xaa;" horiz-adv-x="477" d="M461 710l-71 -368q-1 -7 -9 -7h-47q-6 0 -6 7l6 31q-27 -25 -53.5 -35t-67.5 -10q-67 0 -107 47t-40 122q0 93 57 160.5t156 67.5q73 0 113 -49l6 34q1 7 10 7h47q6 0 6 -7zM226 384q65 0 106.5 53.5t41.5 127.5q0 48 -27 76t-74 28q-65 0 -104.5 -51.5t-39.5 -120.5 q0 -53 26 -83t71 -30z" />
<glyph unicode="&#xab;" horiz-adv-x="584" d="M542 525l-18 -92q-3 -10 -10 -16l-182 -143l127 -143q5 -5 5 -10q0 -2 -1 -6l-17 -79q-2 -7 -7 -7q-3 0 -6 3l-178 202q-7 7 -7 19l11 56q3 11 13 19l258 201q4 3 7 3q5 0 5 -7zM324 525l-18 -92q-3 -10 -10 -16l-182 -143l127 -143q5 -5 5 -10q0 -2 -1 -6l-17 -79 q-2 -7 -7 -7q-3 0 -6 3l-178 202q-7 7 -7 19l11 56q3 11 13 19l258 201q4 3 6 3q6 0 6 -7z" />
<glyph unicode="&#xac;" horiz-adv-x="558" d="M387 330h-326q-8 0 -8 10l12 55q2 11 12 11h397q8 0 8 -11l-40 -205q-1 -10 -12 -10h-61q-9 0 -9 10z" />
<glyph unicode="&#xad;" horiz-adv-x="537" d="M90 390h373q8 0 8 -10l-11 -59q-2 -11 -13 -11h-372q-8 0 -8 11l11 59q1 10 12 10z" />
<glyph unicode="&#xae;" horiz-adv-x="819" d="M410 -10q-90 0 -170 41.5t-133.5 127.5t-53.5 199q0 86 31 157.5t82.5 116.5t114.5 70t129 25t129 -25t114 -70t82 -116.5t31 -157.5t-31 -157t-82 -116.5t-114 -70t-129 -24.5zM410 33q124 0 215.5 86t91.5 239q0 104 -46 180t-114 111t-147 35q-124 0 -216 -86.5 t-92 -239.5t92 -239t216 -86zM268 136v447q0 11 12 11h139q72 0 110 -35.5t38 -94.5q0 -48 -25.5 -81t-68.5 -45l100 -202q2 -4 2 -7q0 -4 -6 -4h-28q-13 0 -17 9l-100 198h-107v-196q0 -11 -11 -11h-26q-12 0 -12 11zM317 551v-176h109q92 0 92 89q0 87 -92 87h-109z" />
<glyph unicode="&#xaf;" horiz-adv-x="287" d="M87 621l9 51q1 10 13 10h191q8 0 8 -10l-9 -51q-2 -11 -12 -11h-192q-8 0 -8 11z" />
<glyph unicode="&#xb0;" horiz-adv-x="438" d="M71 531q0 82 59.5 139t151.5 57q67 0 110.5 -43t43.5 -110q0 -82 -59.5 -138.5t-151.5 -56.5q-67 0 -110.5 42.5t-43.5 109.5zM274 664q-56 0 -93.5 -35.5t-37.5 -90.5q0 -44 25 -70t64 -26q56 0 94 36t38 90q0 44 -25 70t-65 26z" />
<glyph unicode="&#xb1;" horiz-adv-x="606" d="M390 580l-35 -177h176q9 0 9 -10l-12 -59q-1 -10 -12 -10h-176l-35 -177q-1 -10 -11 -10h-64q-9 0 -9 10l35 177h-176q-8 0 -8 10l11 59q1 10 12 10h176l35 177q1 10 11 10h64q9 0 9 -10zM35 80h432q8 0 8 -10l-11 -60q-1 -10 -12 -10h-433q-8 0 -8 10l12 60q1 10 12 10z " />
<glyph unicode="&#xb2;" horiz-adv-x="393" d="M57 344l5 31q1 8 10 14l185 136q28 21 41 39.5t13 46.5q0 26 -16 41.5t-44 15.5q-30 0 -51 -19t-30 -48q-3 -10 -12 -10h-42q-8 0 -8 10q11 54 49.5 88t100.5 34q53 0 84 -30t31 -75q0 -75 -82 -136l-130 -93h166q8 0 8 -10l-6 -35q-1 -10 -13 -10h-250q-9 0 -9 10z" />
<glyph unicode="&#xb3;" horiz-adv-x="385" d="M168 517l7 35q1 10 11 10h21q31 0 54 16t23 47q0 20 -13.5 33.5t-38.5 13.5q-54 0 -72 -52q-3 -9 -12 -9h-37q-9 0 -9 10q11 47 47.5 74.5t91.5 27.5q48 0 76 -25.5t28 -64.5q0 -66 -64 -94q43 -22 43 -80q0 -64 -40.5 -97.5t-105.5 -33.5q-49 0 -82.5 29t-33.5 73 q0 5 1 13q2 11 13 11h37q8 0 8 -11q0 -29 18 -44.5t49 -15.5q34 0 55 18t21 52q0 25 -15 39.5t-44 14.5h-29q-8 0 -8 10z" />
<glyph unicode="&#xb4;" horiz-adv-x="304" d="M84 578l96 129q7 10 18 10h99q6 0 6 -4q0 -3 -3 -6l-131 -130q-10 -10 -21 -10h-61q-5 0 -5 4t2 7z" />
<glyph unicode="&#xb5;" horiz-adv-x="603" d="M544 504l-95 -494q-3 -10 -13 -10h-63q-8 0 -8 10l11 59q-81 -79 -175 -79q-57 0 -96 22l-38 -205q-1 -10 -13 -10h-63q-8 0 -8 10l135 697q1 10 12 10h64q8 0 8 -10l-62 -316q-4 -23 -4 -38q0 -84 93 -84q60 0 112.5 49t69.5 137l49 252q3 10 12 10h64q8 0 8 -10z" />
<glyph unicode="&#xb6;" horiz-adv-x="646" d="M306 717h368q8 0 8 -10l-11 -62q-3 -10 -13 -10h-70l-142 -727q-1 -10 -12 -10h-69q-9 0 -9 10l142 727h-92l-142 -727q-1 -10 -12 -10h-70q-8 0 -8 10l83 430h-25q-78 0 -127 44.5t-49 115.5q0 105 72 162t178 57z" />
<glyph unicode="&#xb7;" horiz-adv-x="279" d="M109 408h79q9 0 9 -11l-16 -78q-1 -10 -12 -10h-80q-8 0 -8 10l15 78q2 11 13 11z" />
<glyph unicode="&#xb8;" horiz-adv-x="266" d="M-5 -105l-12 13q-1 1 -1 3q0 3 3 8l55 110q6 10 12 10h47q9 0 9 -5q0 -1 -1 -2q-2 -2 -2 -3l-56 -91q26 7 59 7q73 0 73 -58q0 -50 -36.5 -75t-95.5 -25q-54 0 -94 10q-9 3 -9 9l5 31q1 10 12 10q3 0 13.5 -2.5t30 -5.5t44.5 -3q22 0 42 8.5t20 28.5q0 27 -48 27 q-24 0 -56 -8q-3 -1 -7 -1q-3 0 -7 4z" />
<glyph unicode="&#xb9;" horiz-adv-x="281" d="M128 344l57 297l-74 -36q-6 -3 -11 -3q-6 0 -6 8l9 45q1 7 10 11l95 47q8 4 16 4h26q8 0 8 -10l-71 -363q-1 -10 -12 -10h-39q-8 0 -8 10z" />
<glyph unicode="&#xba;" horiz-adv-x="478" d="M66 484q0 101 65 171t165 70q74 0 119 -44t45 -115q0 -101 -65 -170t-165 -69q-74 0 -119 43t-45 114zM289 668q-68 0 -114 -52.5t-46 -126.5q0 -49 30 -77.5t78 -28.5q68 0 113.5 52t45.5 126q0 50 -29 78.5t-78 28.5z" />
<glyph unicode="&#xbb;" horiz-adv-x="584" d="M23 36l17 92q3 10 10 16l182 143l-127 143q-5 5 -5 10q0 2 1 6l17 79q2 7 7 7q3 0 6 -3l178 -202q7 -7 7 -19l-11 -56q-3 -11 -13 -19l-258 -201q-5 -3 -6 -3q-5 0 -5 7zM241 36l17 92q3 10 10 16l183 143l-127 143q-6 6 -6 10q0 2 1 6l17 79q2 7 7 7q3 0 6 -3l178 -202 q8 -8 8 -19l-12 -56q-3 -11 -13 -19l-258 -201q-4 -3 -6 -3q-5 0 -5 7z" />
<glyph unicode="&#xbc;" horiz-adv-x="866" d="M593 10l12 63h-168q-8 0 -8 10l5 29q1 6 7 12l225 252q7 7 13 7h36q8 0 8 -10l-48 -245h49q9 0 9 -10l-7 -35q-1 -10 -12 -10h-49l-13 -63q-1 -10 -12 -10h-39q-8 0 -8 10zM643 270l-127 -142h99zM127 344l57 297l-74 -36q-6 -3 -11 -3q-6 0 -6 8l9 45q1 7 10 11l95 47 q8 4 16 4h26q8 0 8 -10l-71 -363q-1 -10 -12 -10h-39q-8 0 -8 10zM55 43l698 671q3 3 7 3t7 -3l23 -26q4 -4 4 -7t-4 -7l-698 -671q-3 -3 -7 -3t-7 3l-23 26q-4 4 -4 7t4 7z" />
<glyph unicode="&#xbd;" horiz-adv-x="911" d="M55 43l698 671q3 3 7 3t7 -3l23 -26q4 -4 4 -7t-4 -7l-698 -671q-3 -3 -7 -3t-7 3l-23 26q-4 4 -4 7t4 7zM127 344l57 297l-74 -36q-6 -3 -11 -3q-6 0 -6 8l9 45q1 7 10 11l95 47q8 4 16 4h26q8 0 8 -10l-71 -363q-1 -10 -12 -10h-39q-8 0 -8 10zM519 10l5 31q1 8 10 14 l185 136q28 21 41 40t13 47q0 26 -16 41t-44 15q-30 0 -51 -19t-30 -48q-3 -10 -12 -10h-42q-9 0 -9 10q11 54 50 88t101 34q53 0 84 -30t31 -74q0 -76 -82 -137l-130 -93h165q9 0 9 -10l-6 -35q-1 -10 -13 -10h-251q-8 0 -8 10z" />
<glyph unicode="&#xbe;" horiz-adv-x="900" d="M168 517l7 35q1 10 11 10h21q31 0 54 16t23 47q0 20 -13.5 33.5t-38.5 13.5q-54 0 -72 -52q-3 -9 -12 -9h-37q-9 0 -9 10q11 47 47.5 74.5t91.5 27.5q48 0 76 -25.5t28 -64.5q0 -66 -64 -94q43 -22 43 -80q0 -64 -40.5 -97.5t-105.5 -33.5q-49 0 -82.5 29t-33.5 73 q0 5 1 13q2 11 13 11h37q8 0 8 -11q0 -29 18 -44.5t49 -15.5q34 0 55 18t21 52q0 25 -15 39.5t-44 14.5h-29q-8 0 -8 10zM627 10l12 63h-168q-8 0 -8 10l5 29q1 6 7 12l224 252q7 7 14 7h36q8 0 8 -10l-48 -245h49q9 0 9 -10l-7 -35q-1 -10 -12 -10h-50l-12 -63 q-1 -10 -12 -10h-39q-8 0 -8 10zM677 270l-127 -142h99zM89 43l697 671q3 3 8 3q4 0 7 -3l22 -26q4 -4 4 -7t-4 -7l-697 -671q-3 -3 -7 -3t-7 3l-23 26q-4 4 -4 7t4 7z" />
<glyph unicode="&#xbf;" horiz-adv-x="560" d="M442 -10q-23 -89 -90.5 -146t-168.5 -57q-82 0 -134 45t-52 124q0 46 21.5 82.5t53.5 62t64.5 48.5t59 53.5t33.5 65.5l8 38q1 10 12 10h69q9 0 9 -10l-6 -31q-10 -52 -38.5 -92t-60.5 -63.5t-63 -45.5t-51.5 -49.5t-20.5 -63.5q0 -43 28.5 -67.5t79.5 -24.5 q55 0 96.5 30.5t62.5 90.5q3 10 13 10h67q8 0 8 -10zM345 412h-86q-8 0 -8 10l16 82q1 10 13 10h86q8 0 8 -10l-17 -82q-1 -10 -12 -10z" />
<glyph unicode="&#xc0;" horiz-adv-x="627" d="M466 10l-32 198h-293l-109 -198q-6 -10 -15 -10h-74q-10 0 -10 8q0 3 4 9l387 690q6 10 14 10h88q9 0 10 -10l120 -695q0 -12 -12 -12h-68q-9 0 -10 10zM367 613l-181 -323h234zM378 909l45 -129q1 -3 1 -5q0 -5 -6 -5h-62q-10 0 -16 9l-80 130q-1 2 -1 4q0 7 8 7h98 q8 0 13 -11z" />
<glyph unicode="&#xc1;" horiz-adv-x="627" d="M466 10l-32 198h-293l-109 -198q-6 -10 -15 -10h-74q-10 0 -10 8q0 3 4 9l387 690q6 10 14 10h88q9 0 10 -10l120 -695q0 -12 -12 -12h-68q-9 0 -10 10zM367 613l-181 -323h234zM354 780l97 129q8 11 17 11h99q6 0 6 -5q0 -3 -3 -6l-131 -130q-9 -9 -20 -9h-62q-5 0 -5 4 q0 3 2 6z" />
<glyph unicode="&#xc2;" horiz-adv-x="627" d="M466 10l-32 198h-293l-109 -198q-6 -10 -15 -10h-74q-10 0 -10 8q0 3 4 9l387 690q6 10 14 10h88q9 0 10 -10l120 -695q0 -12 -12 -12h-68q-9 0 -10 10zM367 613l-181 -323h234zM461 911l82 -131q1 -2 1 -3q0 -7 -8 -7h-64q-9 0 -16 9l-50 65l-76 -65q-10 -9 -21 -9h-66 q-6 0 -6 4q0 3 3 6l133 131q9 9 17 9h57q8 0 14 -9z" />
<glyph unicode="&#xc3;" horiz-adv-x="627" d="M466 10l-32 198h-293l-109 -198q-6 -10 -15 -10h-74q-10 0 -10 8q0 3 4 9l387 690q6 10 14 10h88q9 0 10 -10l120 -695q0 -12 -12 -12h-68q-9 0 -10 10zM367 613l-181 -323h234zM236 883q60 37 110 37q40 0 71.5 -21t56.5 -21q24 0 68 25q4 2 7 2q5 0 9 -8l23 -43 q1 -2 1 -3q0 -5 -13 -14q-55 -37 -110 -37q-41 0 -72 21t-56 21q-22 0 -68 -26q-4 -2 -7 -2q-5 0 -9 8l-23 43q-1 2 -1 3q0 7 13 15z" />
<glyph unicode="&#xc4;" horiz-adv-x="627" d="M466 10l-32 198h-293l-109 -198q-6 -10 -15 -10h-74q-10 0 -10 8q0 3 4 9l387 690q6 10 14 10h88q9 0 10 -10l120 -695q0 -12 -12 -12h-68q-9 0 -10 10zM367 613l-181 -323h234zM265 827l16 82q2 11 12 11h82q8 0 8 -11l-15 -82q-1 -10 -13 -10h-82q-8 0 -8 10zM435 827 l16 82q2 11 12 11h82q8 0 8 -11l-15 -82q-1 -10 -13 -10h-82q-8 0 -8 10z" />
<glyph unicode="&#xc5;" horiz-adv-x="627" d="M466 10l-32 198h-293l-109 -198q-6 -10 -15 -10h-74q-10 0 -10 8q0 3 4 9l387 690q6 10 14 10h88q9 0 10 -10l120 -695q0 -12 -12 -12h-68q-9 0 -10 10zM367 613l-181 -323h234zM326 843q0 42 29 69.5t74 27.5q35 0 57 -21t22 -54q0 -42 -29.5 -69.5t-74.5 -27.5 q-35 0 -56.5 21t-21.5 54zM424 895q-20 0 -34 -12.5t-14 -34.5q0 -35 34 -35q20 0 34 12.5t14 34.5q0 35 -34 35z" />
<glyph unicode="&#xc6;" horiz-adv-x="866" d="M461 336l-49 -254h347q8 0 8 -10l-12 -62q-1 -10 -13 -10h-427q-8 0 -8 10l39 198h-200l-117 -198q-6 -10 -15 -10h-71q-10 0 -10 8q0 4 2 8l411 691q6 10 12 10h509q9 0 9 -10l-13 -62q-1 -10 -12 -10h-332l-42 -217h301q8 0 8 -10l-12 -62q-1 -10 -12 -10h-301z M398 635l-204 -345h167l68 345h-31z" />
<glyph unicode="&#xc7;" horiz-adv-x="706" d="M242 -105l-13 13q-1 1 -1 3q0 3 3 8l37 75q-101 15 -165 93.5t-64 199.5q0 188 107.5 314t290.5 126q116 0 188 -67t72 -171v-11q0 -10 -13 -10h-63q-10 0 -11 10q-14 167 -186 167q-130 0 -211.5 -103t-81.5 -242q0 -110 52 -169t136 -59q91 0 145.5 39.5t96.5 127.5 q4 10 14 10h68q9 0 9 -10q-39 -117 -122.5 -180.5t-201.5 -68.5l-32 -52q26 7 58 7q35 0 54.5 -15t19.5 -43q0 -50 -36.5 -75t-95.5 -25q-54 0 -94 10q-9 3 -9 9l5 31q1 10 12 10q3 0 13.5 -2.5t30 -5.5t44.5 -3q22 0 41.5 8.5t19.5 28.5q0 27 -48 27q-23 0 -55 -8 q-3 -1 -7 -1q-3 0 -7 4z" />
<glyph unicode="&#xc8;" horiz-adv-x="582" d="M182 336l-49 -254h342q8 0 8 -10l-12 -62q-2 -10 -12 -10h-422q-8 0 -8 10l136 697q1 10 12 10h407q8 0 8 -10l-12 -62q-1 -10 -13 -10h-326l-42 -217h296q8 0 8 -10l-13 -62q-1 -10 -12 -10h-296zM406 909l45 -129q1 -3 1 -5q0 -5 -7 -5h-61q-10 0 -16 9l-80 130 q-1 2 -1 4q0 7 8 7h97q9 0 14 -11z" />
<glyph unicode="&#xc9;" horiz-adv-x="582" d="M182 336l-49 -254h342q8 0 8 -10l-12 -62q-2 -10 -12 -10h-422q-8 0 -8 10l136 697q1 10 12 10h407q8 0 8 -10l-12 -62q-1 -10 -13 -10h-326l-42 -217h296q8 0 8 -10l-13 -62q-1 -10 -12 -10h-296zM305 780l96 129q8 11 18 11h99q6 0 6 -5q0 -3 -3 -6l-131 -130 q-9 -9 -20 -9h-62q-5 0 -5 4q0 3 2 6z" />
<glyph unicode="&#xca;" horiz-adv-x="582" d="M182 336l-49 -254h342q8 0 8 -10l-12 -62q-2 -10 -12 -10h-422q-8 0 -8 10l136 697q1 10 12 10h407q8 0 8 -10l-12 -62q-1 -10 -13 -10h-326l-42 -217h296q8 0 8 -10l-13 -62q-1 -10 -12 -10h-296zM461 911l82 -131q1 -2 1 -3q0 -7 -8 -7h-64q-9 0 -16 9l-50 65l-76 -65 q-10 -9 -21 -9h-66q-6 0 -6 4q0 3 3 6l133 131q9 9 17 9h57q8 0 14 -9z" />
<glyph unicode="&#xcb;" horiz-adv-x="582" d="M182 336l-49 -254h342q8 0 8 -10l-12 -62q-2 -10 -12 -10h-422q-8 0 -8 10l136 697q1 10 12 10h407q8 0 8 -10l-12 -62q-1 -10 -13 -10h-326l-42 -217h296q8 0 8 -10l-13 -62q-1 -10 -12 -10h-296zM256 827l15 82q2 11 13 11h82q8 0 8 -11l-16 -82q-1 -10 -12 -10h-82 q-8 0 -8 10zM426 827l15 82q2 11 13 11h82q8 0 8 -11l-16 -82q-1 -10 -12 -10h-82q-8 0 -8 10z" />
<glyph unicode="&#xcc;" horiz-adv-x="283" d="M29 10l136 697q1 10 12 10h70q8 0 8 -10l-136 -697q-1 -10 -13 -10h-69q-8 0 -8 10zM223 909l45 -129q1 -3 1 -5q0 -5 -6 -5h-61q-11 0 -17 9l-80 130q-1 2 -1 4q0 7 9 7h97q8 0 13 -11z" />
<glyph unicode="&#xcd;" horiz-adv-x="283" d="M29 10l136 697q1 10 12 10h70q8 0 8 -10l-136 -697q-1 -10 -13 -10h-69q-8 0 -8 10zM178 780l96 129q8 11 18 11h99q6 0 6 -5q0 -3 -3 -6l-131 -130q-9 -9 -20 -9h-62q-5 0 -5 4q0 3 2 6z" />
<glyph unicode="&#xce;" horiz-adv-x="283" d="M29 10l136 697q1 10 12 10h70q8 0 8 -10l-136 -697q-1 -10 -13 -10h-69q-8 0 -8 10zM293 911l82 -131q1 -2 1 -3q0 -7 -8 -7h-64q-8 0 -16 9l-50 65l-76 -65q-10 -9 -21 -9h-66q-6 0 -6 4q0 3 3 6l133 131q9 9 17 9h58q7 0 13 -9z" />
<glyph unicode="&#xcf;" horiz-adv-x="283" d="M29 10l136 697q1 10 12 10h70q8 0 8 -10l-136 -697q-1 -10 -13 -10h-69q-8 0 -8 10zM94 827l16 82q2 11 12 11h82q8 0 8 -11l-15 -82q-1 -10 -13 -10h-82q-8 0 -8 10zM264 827l16 82q2 11 12 11h82q8 0 8 -11l-15 -82q-1 -10 -13 -10h-82q-8 0 -8 10z" />
<glyph unicode="&#xd0;" horiz-adv-x="706" d="M47 10l61 308h-80q-9 0 -9 11l12 59q1 10 11 10h81l60 309q1 10 13 10h196q120 0 197.5 -72t77.5 -205q0 -188 -112.5 -314t-296.5 -126h-203q-8 0 -8 10zM370 635h-111l-46 -237h161q8 0 8 -10l-11 -59q-2 -11 -13 -11h-160l-46 -236h110q139 0 225.5 100t86.5 245 q0 102 -55 155t-149 53z" />
<glyph unicode="&#xd1;" horiz-adv-x="734" d="M557 0h-78q-12 0 -14 8l-235 574l-111 -572q-1 -10 -13 -10h-69q-8 0 -8 10l136 697q1 10 12 10h78q12 0 14 -8l235 -574l111 572q1 10 13 10h69q9 0 9 -10l-137 -697q-1 -10 -12 -10zM286 883q60 37 110 37q40 0 71.5 -21t56.5 -21q24 0 68 25q4 2 7 2q5 0 9 -8l23 -43 q1 -2 1 -3q0 -5 -12 -14q-56 -37 -111 -37q-41 0 -72 21t-56 21q-22 0 -68 -26q-4 -2 -7 -2q-5 0 -9 8l-23 43q-1 2 -1 3q0 7 13 15z" />
<glyph unicode="&#xd2;" horiz-adv-x="769" d="M335 -10q-136 0 -216 81t-80 220q0 84 27 162t76.5 139.5t125 98t165.5 36.5q136 0 216 -81t80 -220q0 -84 -27 -162t-76.5 -139.5t-125 -98t-165.5 -36.5zM340 72q133 0 215 103t82 245q0 106 -56 165.5t-153 59.5q-133 0 -215 -103t-82 -245q0 -106 56 -165.5 t153 -59.5zM466 909l45 -129q1 -3 1 -5q0 -5 -6 -5h-62q-10 0 -16 9l-80 130q-1 2 -1 4q0 7 8 7h98q8 0 13 -11z" />
<glyph unicode="&#xd3;" horiz-adv-x="769" d="M335 -10q-136 0 -216 81t-80 220q0 84 27 162t76.5 139.5t125 98t165.5 36.5q136 0 216 -81t80 -220q0 -84 -27 -162t-76.5 -139.5t-125 -98t-165.5 -36.5zM340 72q133 0 215 103t82 245q0 106 -56 165.5t-153 59.5q-133 0 -215 -103t-82 -245q0 -106 56 -165.5 t153 -59.5zM386 780l96 129q8 11 18 11h99q6 0 6 -5q0 -3 -3 -6l-131 -130q-9 -9 -20 -9h-62q-5 0 -5 4q0 3 2 6z" />
<glyph unicode="&#xd4;" horiz-adv-x="769" d="M335 -10q-136 0 -216 81t-80 220q0 84 27 162t76.5 139.5t125 98t165.5 36.5q136 0 216 -81t80 -220q0 -84 -27 -162t-76.5 -139.5t-125 -98t-165.5 -36.5zM340 72q133 0 215 103t82 245q0 106 -56 165.5t-153 59.5q-133 0 -215 -103t-82 -245q0 -106 56 -165.5 t153 -59.5zM519 911l82 -131q1 -2 1 -3q0 -7 -8 -7h-64q-8 0 -16 9l-50 65l-76 -65q-10 -9 -20 -9h-67q-6 0 -6 4q0 3 3 6l133 131q9 9 18 9h57q7 0 13 -9z" />
<glyph unicode="&#xd5;" horiz-adv-x="769" d="M335 -10q-136 0 -216 81t-80 220q0 84 27 162t76.5 139.5t125 98t165.5 36.5q136 0 216 -81t80 -220q0 -84 -27 -162t-76.5 -139.5t-125 -98t-165.5 -36.5zM340 72q133 0 215 103t82 245q0 106 -56 165.5t-153 59.5q-133 0 -215 -103t-82 -245q0 -106 56 -165.5 t153 -59.5zM317 883q60 37 111 37q40 0 71.5 -21t56.5 -21q24 0 68 25q4 2 7 2q5 0 9 -8l23 -43q1 -2 1 -3q0 -5 -13 -14q-55 -37 -110 -37q-41 0 -72 21t-56 21q-22 0 -68 -26q-4 -2 -7 -2q-5 0 -9 8l-23 43q-1 2 -1 3q0 8 12 15z" />
<glyph unicode="&#xd6;" horiz-adv-x="769" d="M335 -10q-136 0 -216 81t-80 220q0 84 27 162t76.5 139.5t125 98t165.5 36.5q136 0 216 -81t80 -220q0 -84 -27 -162t-76.5 -139.5t-125 -98t-165.5 -36.5zM340 72q133 0 215 103t82 245q0 106 -56 165.5t-153 59.5q-133 0 -215 -103t-82 -245q0 -106 56 -165.5 t153 -59.5zM334 827l15 82q2 11 12 11h82q9 0 9 -11l-16 -82q-1 -10 -12 -10h-82q-8 0 -8 10zM504 827l15 82q2 11 12 11h82q9 0 9 -11l-16 -82q-1 -10 -12 -10h-82q-8 0 -8 10z" />
<glyph unicode="&#xd7;" horiz-adv-x="504" d="M464 476l-147 -126l100 -125q2 -3 2 -6t-5 -8l-45 -39q-4 -4 -9 -4q-2 0 -6 4l-101 128l-152 -131q-4 -4 -7 -4t-7 4l-40 48q-2 3 -2 6q0 4 5 8l155 129l-100 118q-2 3 -2 6q0 4 6 9l46 38q7 5 8 5t6 -5l98 -120l147 125q5 4 8 4q2 0 6 -4l39 -46q2 -3 2 -6t-5 -8z" />
<glyph unicode="&#xd8;" horiz-adv-x="769" d="M335 -10q-101 0 -172 45l-62 -79q-5 -6 -9 -6q-3 0 -6 2l-25 16q-4 3 -4 7q0 3 3 8l65 83q-86 81 -86 225q0 84 27 162t76.5 139.5t125 98t165.5 36.5q101 0 172 -45l62 79q5 6 9 6q3 0 6 -2l25 -16q4 -3 4 -8q0 -3 -3 -7l-65 -83q86 -81 86 -225q0 -84 -27 -162 t-76.5 -139.5t-125 -98t-165.5 -36.5zM131 297q0 -101 50 -159l369 473q-49 34 -122 34q-133 0 -215 -103t-82 -245zM340 72q133 0 215 103t82 245q0 101 -50 159l-369 -474q47 -33 122 -33z" />
<glyph unicode="&#xd9;" horiz-adv-x="674" d="M67 265l86 442q1 10 12 10h69q9 0 9 -10l-87 -448q-6 -35 -6 -63q0 -124 133 -124q162 0 200 187l87 448q1 10 13 10h69q8 0 8 -10l-90 -459q-27 -137 -101.5 -197.5t-202.5 -60.5q-93 0 -150 53t-57 150q0 32 8 72zM428 909l45 -129q1 -3 1 -5q0 -5 -6 -5h-61 q-11 0 -17 9l-80 130q-1 2 -1 4q0 7 8 7h98q8 0 13 -11z" />
<glyph unicode="&#xda;" horiz-adv-x="674" d="M67 265l86 442q1 10 12 10h69q9 0 9 -10l-87 -448q-6 -35 -6 -63q0 -124 133 -124q162 0 200 187l87 448q1 10 13 10h69q8 0 8 -10l-90 -459q-27 -137 -101.5 -197.5t-202.5 -60.5q-93 0 -150 53t-57 150q0 32 8 72zM346 780l96 129q8 11 18 11h99q6 0 6 -5q0 -3 -3 -6 l-131 -130q-9 -9 -20 -9h-62q-5 0 -5 4q0 3 2 6z" />
<glyph unicode="&#xdb;" horiz-adv-x="674" d="M67 265l86 442q1 10 12 10h69q9 0 9 -10l-87 -448q-6 -35 -6 -63q0 -124 133 -124q162 0 200 187l87 448q1 10 13 10h69q8 0 8 -10l-90 -459q-27 -137 -101.5 -197.5t-202.5 -60.5q-93 0 -150 53t-57 150q0 32 8 72zM489 911l82 -131q1 -2 1 -3q0 -7 -8 -7h-63 q-9 0 -17 9l-50 65l-76 -65q-10 -9 -20 -9h-67q-6 0 -6 4q0 3 3 6l133 131q9 9 18 9h57q7 0 13 -9z" />
<glyph unicode="&#xdc;" horiz-adv-x="674" d="M67 265l86 442q1 10 12 10h69q9 0 9 -10l-87 -448q-6 -35 -6 -63q0 -124 133 -124q162 0 200 187l87 448q1 10 13 10h69q8 0 8 -10l-90 -459q-27 -137 -101.5 -197.5t-202.5 -60.5q-93 0 -150 53t-57 150q0 32 8 72zM290 827l15 82q2 11 12 11h82q9 0 9 -11l-16 -82 q-1 -10 -12 -10h-82q-8 0 -8 10zM460 827l15 82q2 11 12 11h82q9 0 9 -11l-16 -82q-1 -10 -12 -10h-82q-8 0 -8 10z" />
<glyph unicode="&#xdd;" horiz-adv-x="540" d="M600 707l-311 -443l-50 -254q-1 -10 -13 -10h-69q-9 0 -9 10l51 254l-140 443q0 10 9 10h80q7 0 10 -8l101 -344l239 344q5 8 13 8h85q6 0 6 -5q0 -2 -2 -5zM263 780l96 129q8 11 18 11h99q6 0 6 -5q0 -3 -3 -6l-131 -130q-9 -9 -20 -9h-62q-5 0 -5 4q0 3 2 6z" />
<glyph unicode="&#xde;" horiz-adv-x="646" d="M254 707l-30 -149h171q95 0 148.5 -44.5t53.5 -118.5q0 -113 -74.5 -174.5t-203.5 -61.5h-172l-28 -149q-1 -10 -13 -10h-69q-8 0 -8 10l135 697q1 10 12 10h70q8 0 8 -10zM209 476l-46 -235h185q71 0 114 35.5t43 106.5q0 44 -28.5 68.5t-82.5 24.5h-185z" />
<glyph unicode="&#xdf;" horiz-adv-x="621" d="M344 -10q-69 0 -116.5 43t-47.5 99q0 8 2 22q1 10 13 10h55q8 0 8 -10q2 -39 25 -63.5t70 -24.5q50 0 81 30t31 80q0 28 -15 49.5t-36 35.5t-42 27.5t-36 34.5t-15 49q0 26 13 48t31.5 37.5t37 30t31.5 33.5t13 41q0 43 -25 66t-73 23q-110 0 -135 -125l-100 -516 q-1 -10 -13 -10h-63q-8 0 -8 10l84 428h-77q-8 0 -8 11l10 55q1 10 12 10h77l6 33q15 82 77.5 131t148.5 49q77 0 122.5 -42t45.5 -110q0 -40 -19.5 -73t-42.5 -50.5t-42.5 -36t-19.5 -33.5q0 -17 23.5 -36t51 -35.5t51 -50t23.5 -75.5q0 -92 -59 -143.5t-150 -51.5z" />
<glyph unicode="&#xe0;" horiz-adv-x="619" d="M560 504l-95 -494q-3 -10 -12 -10h-64q-8 0 -8 10l8 41q-37 -34 -72.5 -47.5t-90.5 -13.5q-90 0 -143.5 63t-53.5 165q0 124 76 215t209 91q100 0 154 -65l8 45q1 10 12 10h64q8 0 8 -10zM245 66q87 0 142 72t55 172q0 64 -35.5 101.5t-98.5 37.5q-87 0 -139 -69 t-52 -162q0 -71 33.5 -111.5t94.5 -40.5zM355 707l45 -129q1 -3 1 -6q0 -5 -6 -5h-61q-10 0 -17 10l-79 130q-1 2 -1 4q0 6 8 6h97q9 0 13 -10z" />
<glyph unicode="&#xe1;" horiz-adv-x="619" d="M560 504l-95 -494q-3 -10 -12 -10h-64q-8 0 -8 10l8 41q-37 -34 -72.5 -47.5t-90.5 -13.5q-90 0 -143.5 63t-53.5 165q0 124 76 215t209 91q100 0 154 -65l8 45q1 10 12 10h64q8 0 8 -10zM245 66q87 0 142 72t55 172q0 64 -35.5 101.5t-98.5 37.5q-87 0 -139 -69 t-52 -162q0 -71 33.5 -111.5t94.5 -40.5zM244 578l96 129q7 10 17 10h100q6 0 6 -4q0 -3 -3 -6l-131 -130q-10 -10 -21 -10h-61q-5 0 -5 4t2 7z" />
<glyph unicode="&#xe2;" horiz-adv-x="619" d="M560 504l-95 -494q-3 -10 -12 -10h-64q-8 0 -8 10l8 41q-37 -34 -72.5 -47.5t-90.5 -13.5q-90 0 -143.5 63t-53.5 165q0 124 76 215t209 91q100 0 154 -65l8 45q1 10 12 10h64q8 0 8 -10zM245 66q87 0 142 72t55 172q0 64 -35.5 101.5t-98.5 37.5q-87 0 -139 -69 t-52 -162q0 -71 33.5 -111.5t94.5 -40.5zM409 709l81 -131q2 -3 2 -4q0 -7 -9 -7h-63q-9 0 -17 10l-50 64l-75 -64q-12 -10 -21 -10h-67q-6 0 -6 4t3 7l134 131q8 8 17 8h57q9 0 14 -8z" />
<glyph unicode="&#xe3;" horiz-adv-x="619" d="M560 504l-95 -494q-3 -10 -12 -10h-64q-8 0 -8 10l8 41q-37 -34 -72.5 -47.5t-90.5 -13.5q-90 0 -143.5 63t-53.5 165q0 124 76 215t209 91q100 0 154 -65l8 45q1 10 12 10h64q8 0 8 -10zM245 66q87 0 142 72t55 172q0 64 -35.5 101.5t-98.5 37.5q-87 0 -139 -69 t-52 -162q0 -71 33.5 -111.5t94.5 -40.5zM185 680q60 37 111 37q40 0 71.5 -21t56.5 -21q24 0 68 25q4 2 7 2q5 0 9 -8l22 -43q1 -2 1 -3q0 -5 -12 -14q-55 -37 -110 -37q-41 0 -72 21t-56 21q-22 0 -68 -26q-4 -2 -7 -2q-4 0 -9 9l-23 43q-1 2 -1 3q0 6 12 14z" />
<glyph unicode="&#xe4;" horiz-adv-x="619" d="M560 504l-95 -494q-3 -10 -12 -10h-64q-8 0 -8 10l8 41q-37 -34 -72.5 -47.5t-90.5 -13.5q-90 0 -143.5 63t-53.5 165q0 124 76 215t209 91q100 0 154 -65l8 45q1 10 12 10h64q8 0 8 -10zM245 66q87 0 142 72t55 172q0 64 -35.5 101.5t-98.5 37.5q-87 0 -139 -69 t-52 -162q0 -71 33.5 -111.5t94.5 -40.5zM218 625l15 82q1 10 13 10h82q8 0 8 -10l-15 -82q-2 -11 -13 -11h-82q-8 0 -8 11zM388 625l15 82q1 10 13 10h82q8 0 8 -10l-16 -82q-2 -11 -12 -11h-82q-8 0 -8 11z" />
<glyph unicode="&#xe5;" horiz-adv-x="619" d="M560 504l-95 -494q-3 -10 -12 -10h-64q-8 0 -8 10l8 41q-37 -34 -72.5 -47.5t-90.5 -13.5q-90 0 -143.5 63t-53.5 165q0 124 76 215t209 91q100 0 154 -65l8 45q1 10 12 10h64q8 0 8 -10zM245 66q87 0 142 72t55 172q0 64 -35.5 101.5t-98.5 37.5q-87 0 -139 -69 t-52 -162q0 -71 33.5 -111.5t94.5 -40.5zM267 640q0 42 29.5 69.5t74.5 27.5q35 0 57 -20.5t22 -53.5q0 -42 -29.5 -70t-74.5 -28q-35 0 -57 21t-22 54zM366 692q-20 0 -34.5 -12.5t-14.5 -34.5q0 -35 34 -35q20 0 34 12.5t14 34.5q0 35 -33 35z" />
<glyph unicode="&#xe6;" horiz-adv-x="965" d="M886 232h-402q-2 -14 -2 -26q0 -65 35 -102.5t101 -37.5q104 0 167 94q6 9 17 9h66q5 0 5 -5q0 -4 -4 -12q-82 -162 -262 -162q-133 0 -186 112q-76 -112 -216 -112q-74 0 -125 37.5t-51 107.5q0 87 66 138t164 51q73 0 148 -22l5 27q3 16 3 31q0 42 -26.5 65.5 t-77.5 23.5q-90 0 -136 -78q-5 -10 -16 -10h-65q-7 0 -7 7q0 4 3 10q65 146 229 146q59 0 102 -24t62 -64q88 88 217 88q96 0 151 -60.5t55 -154.5q0 -26 -5 -50l-3 -16q-3 -11 -12 -11zM391 224q-67 24 -137 24q-56 0 -96.5 -25t-40.5 -78q0 -38 23.5 -58.5t64.5 -20.5 q68 0 120 42t66 116zM686 449q-60 0 -109.5 -36.5t-76.5 -104.5h322q0 67 -35.5 104t-100.5 37z" />
<glyph unicode="&#xe7;" horiz-adv-x="574" d="M159 -105l-13 13q-1 1 -1 3q0 3 3 8l38 77q-75 16 -116 76t-41 146q0 131 85.5 218.5t218.5 87.5q86 0 140 -50t56 -126q0 -11 -9 -11h-62q-12 0 -14 9q-13 103 -125 103q-88 0 -145 -66.5t-57 -163.5q0 -153 136 -153q102 0 156 102q5 9 15 9h64q7 0 7 -6q0 -4 -3 -10 q-74 -168 -247 -171l-32 -52q26 7 58 7q35 0 54.5 -15t19.5 -43q0 -50 -36.5 -75t-95.5 -25q-54 0 -94 10q-9 3 -9 9l5 31q1 10 12 10q3 0 13.5 -2.5t30 -5.5t44.5 -3q22 0 41.5 8.5t19.5 28.5q0 27 -48 27q-23 0 -55 -8q-3 -1 -7 -1q-3 0 -7 4z" />
<glyph unicode="&#xe8;" horiz-adv-x="598" d="M518 232h-399q-2 -14 -2 -26q0 -65 34 -102.5t100 -37.5q104 0 167 94q6 9 16 9h67q5 0 5 -5q0 -4 -4 -12q-82 -162 -262 -162q-99 0 -155 65t-56 166q0 124 86 213.5t218 89.5q96 0 151 -60.5t55 -154.5q0 -26 -5 -50l-4 -16q-3 -11 -12 -11zM318 449q-60 0 -109 -36 t-76 -105h322q0 67 -36 104t-101 37zM347 707l45 -129q1 -3 1 -6q0 -5 -6 -5h-61q-10 0 -17 10l-80 130q-1 2 -1 4q0 6 9 6h97q9 0 13 -10z" />
<glyph unicode="&#xe9;" horiz-adv-x="598" d="M518 232h-399q-2 -14 -2 -26q0 -65 34 -102.5t100 -37.5q104 0 167 94q6 9 16 9h67q5 0 5 -5q0 -4 -4 -12q-82 -162 -262 -162q-99 0 -155 65t-56 166q0 124 86 213.5t218 89.5q96 0 151 -60.5t55 -154.5q0 -26 -5 -50l-4 -16q-3 -11 -12 -11zM318 449q-60 0 -109 -36 t-76 -105h322q0 67 -36 104t-101 37zM274 578l97 129q7 10 17 10h99q7 0 7 -4q0 -2 -4 -6l-131 -130q-10 -10 -20 -10h-61q-6 0 -6 4t2 7z" />
<glyph unicode="&#xea;" horiz-adv-x="598" d="M518 232h-399q-2 -14 -2 -26q0 -65 34 -102.5t100 -37.5q104 0 167 94q6 9 16 9h67q5 0 5 -5q0 -4 -4 -12q-82 -162 -262 -162q-99 0 -155 65t-56 166q0 124 86 213.5t218 89.5q96 0 151 -60.5t55 -154.5q0 -26 -5 -50l-4 -16q-3 -11 -12 -11zM318 449q-60 0 -109 -36 t-76 -105h322q0 67 -36 104t-101 37zM421 709l82 -131q1 -3 1 -4q0 -7 -8 -7h-64q-8 0 -16 10l-50 64l-76 -64q-12 -10 -21 -10h-66q-6 0 -6 4t3 7l133 131q8 8 17 8h58q8 0 13 -8z" />
<glyph unicode="&#xeb;" horiz-adv-x="598" d="M518 232h-399q-2 -14 -2 -26q0 -65 34 -102.5t100 -37.5q104 0 167 94q6 9 16 9h67q5 0 5 -5q0 -4 -4 -12q-82 -162 -262 -162q-99 0 -155 65t-56 166q0 124 86 213.5t218 89.5q96 0 151 -60.5t55 -154.5q0 -26 -5 -50l-4 -16q-3 -11 -12 -11zM318 449q-60 0 -109 -36 t-76 -105h322q0 67 -36 104t-101 37zM222 625l16 82q1 10 12 10h82q8 0 8 -10l-15 -82q-2 -11 -13 -11h-82q-8 0 -8 11zM392 625l16 82q1 10 12 10h82q8 0 8 -10l-15 -82q-2 -11 -13 -11h-82q-8 0 -8 11z" />
<glyph unicode="&#xec;" horiz-adv-x="274" d="M31 10l96 494q1 10 12 10h64q8 0 8 -10l-96 -494q-1 -10 -13 -10h-63q-8 0 -8 10zM172 707l45 -129q1 -3 1 -6q0 -5 -6 -5h-61q-10 0 -17 10l-80 130q-1 2 -1 4q0 6 8 6h98q9 0 13 -10z" />
<glyph unicode="&#xed;" horiz-adv-x="274" d="M31 10l96 494q1 10 12 10h64q8 0 8 -10l-96 -494q-1 -10 -13 -10h-63q-8 0 -8 10zM139 578l97 129q7 10 17 10h99q6 0 6 -4q0 -3 -3 -6l-131 -130q-10 -10 -20 -10h-62q-5 0 -5 4t2 7z" />
<glyph unicode="&#xee;" horiz-adv-x="274" d="M255 709l82 -131q1 -3 1 -4q0 -7 -8 -7h-64q-8 0 -16 10l-50 64l-76 -64q-12 -10 -21 -10h-66q-6 0 -6 4t3 7l133 131q8 8 17 8h58q8 0 13 -8zM31 10l96 494q1 10 12 10h64q8 0 8 -10l-96 -494q-1 -10 -13 -10h-63q-8 0 -8 10z" />
<glyph unicode="&#xef;" horiz-adv-x="274" d="M31 10l96 494q1 10 12 10h64q8 0 8 -10l-96 -494q-1 -10 -13 -10h-63q-8 0 -8 10zM54 625l16 82q1 10 12 10h82q8 0 8 -10l-15 -82q-2 -11 -13 -11h-82q-8 0 -8 11zM224 625l16 82q1 10 12 10h82q8 0 8 -10l-15 -82q-2 -11 -13 -11h-82q-8 0 -8 11z" />
<glyph unicode="&#xf0;" horiz-adv-x="611" d="M279 548l-16 46q-2 8 9 13l63 23q-35 13 -93 19q-10 2 -5 15l14 51q2 7 15 7q103 -12 173 -55l109 39q9 4 12 -6l15 -46q3 -10 -9 -13l-67 -25q26 -32 40 -93t14 -122q0 -80 -18 -151.5t-54.5 -131t-99 -94t-144.5 -34.5q-94 0 -151 62t-57 167q0 125 82 215t214 90 q100 0 139 -60q-5 81 -56 121l-117 -42q-9 -3 -12 5zM315 449q-93 0 -147.5 -66.5t-54.5 -163.5q0 -72 33.5 -112.5t97.5 -40.5q88 0 147 70.5t59 161.5q0 72 -34.5 111.5t-100.5 39.5z" />
<glyph unicode="&#xf1;" horiz-adv-x="609" d="M31 10l95 494q3 10 12 10h64q8 0 8 -10l-11 -59q81 79 175 79q73 0 112.5 -35t39.5 -99q0 -16 -6 -52l-63 -328q-1 -10 -13 -10h-63q-8 0 -8 10l61 316q4 23 4 39q0 84 -93 84q-60 0 -112 -49.5t-69 -137.5l-49 -252q-3 -10 -13 -10h-63q-8 0 -8 10zM203 680 q60 37 110 37q40 0 71.5 -21t56.5 -21q24 0 68 25q4 2 7 2q5 0 9 -8l23 -43q1 -2 1 -3q0 -5 -12 -14q-55 -37 -111 -37q-41 0 -72 21t-56 21q-22 0 -68 -26q-4 -2 -7 -2q-5 0 -9 9l-23 43q-1 2 -1 3q0 6 13 14z" />
<glyph unicode="&#xf2;" horiz-adv-x="622" d="M29 202q0 135 87 228.5t221 93.5q99 0 159.5 -58.5t60.5 -153.5q0 -135 -87 -228.5t-221 -93.5q-99 0 -159.5 58.5t-60.5 153.5zM328 449q-91 0 -151 -70.5t-60 -169.5q0 -66 38 -104.5t103 -38.5q91 0 151 70t60 169q0 67 -38 105.5t-103 38.5zM366 707l45 -129 q1 -3 1 -6q0 -5 -6 -5h-62q-9 0 -16 10l-80 130q-1 2 -1 4q0 6 8 6h97q10 0 14 -10z" />
<glyph unicode="&#xf3;" horiz-adv-x="622" d="M29 202q0 135 87 228.5t221 93.5q99 0 159.5 -58.5t60.5 -153.5q0 -135 -87 -228.5t-221 -93.5q-99 0 -159.5 58.5t-60.5 153.5zM328 449q-91 0 -151 -70.5t-60 -169.5q0 -66 38 -104.5t103 -38.5q91 0 151 70t60 169q0 67 -38 105.5t-103 38.5zM268 578l97 129 q7 10 17 10h99q6 0 6 -4q0 -3 -3 -6l-131 -130q-10 -10 -20 -10h-62q-5 0 -5 4t2 7z" />
<glyph unicode="&#xf4;" horiz-adv-x="622" d="M29 202q0 135 87 228.5t221 93.5q99 0 159.5 -58.5t60.5 -153.5q0 -135 -87 -228.5t-221 -93.5q-99 0 -159.5 58.5t-60.5 153.5zM328 449q-91 0 -151 -70.5t-60 -169.5q0 -66 38 -104.5t103 -38.5q91 0 151 70t60 169q0 67 -38 105.5t-103 38.5zM430 709l82 -131 q1 -3 1 -4q0 -7 -8 -7h-64q-8 0 -16 10l-50 64l-76 -64q-12 -10 -20 -10h-67q-6 0 -6 4t3 7l133 131q8 8 17 8h58q8 0 13 -8z" />
<glyph unicode="&#xf5;" horiz-adv-x="622" d="M29 202q0 135 87 228.5t221 93.5q99 0 159.5 -58.5t60.5 -153.5q0 -135 -87 -228.5t-221 -93.5q-99 0 -159.5 58.5t-60.5 153.5zM328 449q-91 0 -151 -70.5t-60 -169.5q0 -66 38 -104.5t103 -38.5q91 0 151 70t60 169q0 67 -38 105.5t-103 38.5zM215 680q60 37 111 37 q40 0 71.5 -21t56.5 -21q23 0 67 25q4 2 7 2q6 0 10 -8l22 -43q1 -2 1 -3q0 -5 -12 -14q-55 -37 -111 -37q-41 0 -72 21t-56 21q-21 0 -67 -26q-4 -2 -7 -2q-6 0 -10 9l-22 43q-1 2 -1 3q0 6 12 14z" />
<glyph unicode="&#xf6;" horiz-adv-x="622" d="M29 202q0 135 87 228.5t221 93.5q99 0 159.5 -58.5t60.5 -153.5q0 -135 -87 -228.5t-221 -93.5q-99 0 -159.5 58.5t-60.5 153.5zM328 449q-91 0 -151 -70.5t-60 -169.5q0 -66 38 -104.5t103 -38.5q91 0 151 70t60 169q0 67 -38 105.5t-103 38.5zM228 625l16 82 q1 10 12 10h82q8 0 8 -10l-15 -82q-2 -11 -13 -11h-81q-9 0 -9 11zM398 625l16 82q1 10 12 10h82q8 0 8 -10l-15 -82q-2 -11 -13 -11h-81q-9 0 -9 11z" />
<glyph unicode="&#xf7;" horiz-adv-x="596" d="M221 98h80q8 0 8 -10l-14 -78q-1 -10 -12 -10h-80q-8 0 -8 10l14 78q1 10 12 10zM302 514h80q8 0 8 -10l-14 -78q-1 -10 -12 -10h-80q-9 0 -9 10l15 78q1 10 12 10zM88 297h432q8 0 8 -10l-11 -60q-1 -10 -12 -10h-432q-8 0 -8 10l11 60q1 10 12 10z" />
<glyph unicode="&#xf8;" horiz-adv-x="622" d="M29 202q0 135 87 228.5t221 93.5q63 0 113 -25l44 57q4 6 9 6q3 0 6 -2l25 -16q4 -3 4 -7q0 -3 -3 -8l-46 -57q68 -60 68 -160q0 -135 -87 -228.5t-221 -93.5q-63 0 -113 25l-44 -57q-4 -6 -9 -6q-3 0 -6 2l-25 16q-4 3 -4 7q0 3 3 8l45 57q-67 59 -67 160zM469 305 q0 62 -33 98l-249 -322q30 -15 71 -15q91 0 151 70t60 169zM328 449q-91 0 -151 -70.5t-60 -169.5q0 -62 33 -98l248 322q-32 16 -70 16z" />
<glyph unicode="&#xf9;" horiz-adv-x="603" d="M544 504l-95 -494q-3 -10 -13 -10h-63q-8 0 -8 10l11 59q-81 -79 -175 -79q-73 0 -113 35t-40 99q0 16 6 52l64 328q1 10 12 10h64q8 0 8 -10l-62 -316q-4 -23 -4 -38q0 -84 93 -84q60 0 112.5 49t69.5 137l49 252q3 10 12 10h64q8 0 8 -10zM366 707l45 -129q1 -3 1 -6 q0 -5 -6 -5h-62q-9 0 -16 10l-80 130q-1 2 -1 4q0 6 8 6h97q10 0 14 -10z" />
<glyph unicode="&#xfa;" horiz-adv-x="603" d="M544 504l-95 -494q-3 -10 -13 -10h-63q-8 0 -8 10l11 59q-81 -79 -175 -79q-73 0 -113 35t-40 99q0 16 6 52l64 328q1 10 12 10h64q8 0 8 -10l-62 -316q-4 -23 -4 -38q0 -84 93 -84q60 0 112.5 49t69.5 137l49 252q3 10 12 10h64q8 0 8 -10zM264 578l96 129q7 10 18 10 h99q6 0 6 -4q0 -3 -3 -6l-131 -130q-10 -10 -20 -10h-62q-5 0 -5 4t2 7z" />
<glyph unicode="&#xfb;" horiz-adv-x="603" d="M544 504l-95 -494q-3 -10 -13 -10h-63q-8 0 -8 10l11 59q-81 -79 -175 -79q-73 0 -113 35t-40 99q0 16 6 52l64 328q1 10 12 10h64q8 0 8 -10l-62 -316q-4 -23 -4 -38q0 -84 93 -84q60 0 112.5 49t69.5 137l49 252q3 10 12 10h64q8 0 8 -10zM413 709l82 -131q1 -3 1 -4 q0 -7 -9 -7h-63q-8 0 -16 10l-51 64l-75 -64q-12 -10 -21 -10h-66q-7 0 -7 4t3 7l134 131q8 8 17 8h57q9 0 14 -8z" />
<glyph unicode="&#xfc;" horiz-adv-x="603" d="M544 504l-95 -494q-3 -10 -13 -10h-63q-8 0 -8 10l11 59q-81 -79 -175 -79q-73 0 -113 35t-40 99q0 16 6 52l64 328q1 10 12 10h64q8 0 8 -10l-62 -316q-4 -23 -4 -38q0 -84 93 -84q60 0 112.5 49t69.5 137l49 252q3 10 12 10h64q8 0 8 -10zM213 625l15 82q1 10 13 10h82 q8 0 8 -10l-16 -82q-2 -11 -12 -11h-82q-8 0 -8 11zM383 625l15 82q1 10 13 10h82q8 0 8 -10l-16 -82q-2 -11 -12 -11h-82q-8 0 -8 11z" />
<glyph unicode="&#xfd;" horiz-adv-x="537" d="M135 514q10 0 11 -10l76 -395l207 395q4 10 15 10h74q6 0 6 -7q0 -3 -2 -7l-295 -550q-51 -95 -100 -129t-112 -34q-41 0 -70 16q-8 5 -8 11l1 6l10 55q3 10 10 10q2 0 22 -11t47 -11q74 0 135 128l-109 507q-1 5 -1 8q0 8 9 8h74zM240 578l96 129q7 10 17 10h100 q6 0 6 -4q0 -3 -3 -6l-131 -130q-10 -10 -21 -10h-61q-5 0 -5 4t2 7z" />
<glyph unicode="&#xfe;" horiz-adv-x="633" d="M-8 -193l177 900q1 10 12 10h64q8 0 8 -10l-48 -247q71 64 168 64q84 0 139.5 -57t55.5 -156q0 -136 -78 -228.5t-209 -92.5q-49 0 -92 19.5t-62 48.5l-51 -251q-1 -10 -13 -10h-63q-8 0 -8 10zM353 449q-89 0 -145 -71.5t-56 -165.5q0 -67 35.5 -106.5t93.5 -39.5 q92 0 145.5 70t53.5 166q0 69 -32.5 108t-94.5 39z" />
<glyph unicode="&#xff;" horiz-adv-x="537" d="M135 514q10 0 11 -10l76 -395l207 395q4 10 15 10h74q6 0 6 -7q0 -3 -2 -7l-295 -550q-51 -95 -100 -129t-112 -34q-41 0 -70 16q-8 5 -8 11l1 6l10 55q3 10 10 10q2 0 22 -11t47 -11q74 0 135 128l-109 507q-1 5 -1 8q0 8 9 8h74zM174 625l15 82q1 10 13 10h82 q8 0 8 -10l-16 -82q-2 -11 -12 -11h-82q-8 0 -8 11zM344 625l15 82q1 10 13 10h82q8 0 8 -10l-16 -82q-2 -11 -12 -11h-82q-8 0 -8 11z" />
<glyph unicode="&#x152;" horiz-adv-x="1121" d="M335 -10q-136 0 -216 81t-80 220q0 84 27 162t76.5 139.5t125 98t165.5 36.5q172 0 250 -125l20 105q1 10 13 10h406q8 0 8 -10l-12 -62q-1 -10 -12 -10h-327l-42 -217h296q8 0 8 -10l-12 -62q-1 -10 -12 -10h-296l-49 -254h342q8 0 8 -10l-12 -62q-2 -10 -13 -10h-422 q-8 0 -8 10l14 69q-105 -89 -246 -89zM340 72q133 0 215.5 103t82.5 245q0 106 -56.5 165.5t-153.5 59.5q-133 0 -215 -103t-82 -245q0 -106 56 -165.5t153 -59.5z" />
<glyph unicode="&#x153;" horiz-adv-x="1035" d="M955 232h-401q-2 -14 -2 -26q0 -65 35 -102.5t101 -37.5q104 0 167 94q6 9 16 9h67q5 0 5 -5q0 -4 -4 -12q-82 -162 -262 -162q-135 0 -188 115q-89 -115 -240 -115q-99 0 -159.5 58.5t-60.5 153.5q0 135 87 228.5t221 93.5q68 0 119.5 -29t77.5 -80q89 109 236 109 q96 0 151 -60.5t55 -154.5q0 -26 -5 -50l-3 -16q-3 -11 -13 -11zM328 449q-91 0 -151 -70.5t-60 -169.5q0 -66 38 -104.5t103 -38.5q91 0 150.5 70t59.5 169q0 67 -37.5 105.5t-102.5 38.5zM756 449q-61 0 -110.5 -36.5t-76.5 -104.5h323q0 67 -35.5 104t-100.5 37z" />
<glyph unicode="&#x178;" horiz-adv-x="540" d="M600 707l-311 -443l-50 -254q-1 -10 -13 -10h-69q-9 0 -9 10l51 254l-140 443q0 10 9 10h80q7 0 10 -8l101 -344l239 344q5 8 13 8h85q6 0 6 -5q0 -2 -2 -5zM206 827l15 82q2 11 12 11h82q9 0 9 -11l-16 -82q-1 -10 -12 -10h-82q-8 0 -8 10zM376 827l15 82q2 11 12 11h82 q9 0 9 -11l-16 -82q-1 -10 -12 -10h-82q-8 0 -8 10z" />
<glyph unicode="&#x17f;" horiz-adv-x="379" d="M232 550l-105 -540q-1 -10 -12 -10h-64q-9 0 -8 10l84 428h-84q-8 0 -8 11l10 55q1 10 12 10h84l9 43q15 78 67.5 124t129.5 46q67 0 107 -19q6 -4 6 -10q0 -3 -1 -8l-12 -53q-2 -10 -9 -10q-2 0 -6 2q-45 22 -96 22q-86 0 -104 -101z" />
<glyph unicode="&#x2c6;" horiz-adv-x="381" d="M291 709l82 -131q1 -3 1 -4q0 -7 -8 -7h-64q-8 0 -16 10l-50 64l-76 -64q-12 -10 -21 -10h-66q-6 0 -6 4t3 7l133 131q8 8 17 8h58q8 0 13 -8z" />
<glyph unicode="&#x2dc;" horiz-adv-x="404" d="M81 680q60 37 110 37q40 0 71.5 -21t56.5 -21q24 0 68 25q4 2 7 2q5 0 9 -8l23 -43q1 -2 1 -3q0 -5 -12 -14q-56 -37 -111 -37q-41 0 -72 21t-56 21q-21 0 -67 -26q-4 -2 -8 -2q-5 0 -9 9l-22 43q-1 2 -1 3q0 6 12 14z" />
<glyph unicode="&#x2000;" horiz-adv-x="470" />
<glyph unicode="&#x2001;" horiz-adv-x="940" />
<glyph unicode="&#x2002;" horiz-adv-x="470" />
<glyph unicode="&#x2003;" horiz-adv-x="940" />
<glyph unicode="&#x2004;" horiz-adv-x="313" />
<glyph unicode="&#x2005;" horiz-adv-x="235" />
<glyph unicode="&#x2006;" horiz-adv-x="156" />
<glyph unicode="&#x2007;" horiz-adv-x="156" />
<glyph unicode="&#x2008;" horiz-adv-x="117" />
<glyph unicode="&#x2009;" horiz-adv-x="188" />
<glyph unicode="&#x200a;" horiz-adv-x="52" />
<glyph unicode="&#x2010;" horiz-adv-x="537" d="M90 390h373q8 0 8 -10l-11 -59q-2 -11 -13 -11h-372q-8 0 -8 11l11 59q1 10 12 10z" />
<glyph unicode="&#x2011;" horiz-adv-x="537" d="M90 390h373q8 0 8 -10l-11 -59q-2 -11 -13 -11h-372q-8 0 -8 11l11 59q1 10 12 10z" />
<glyph unicode="&#x2012;" horiz-adv-x="537" d="M90 390h373q8 0 8 -10l-11 -59q-2 -11 -13 -11h-372q-8 0 -8 11l11 59q1 10 12 10z" />
<glyph unicode="&#x2013;" horiz-adv-x="596" d="M90 390h432q8 0 8 -10l-11 -59q-2 -11 -12 -11h-432q-8 0 -8 11l11 59q1 10 12 10z" />
<glyph unicode="&#x2014;" horiz-adv-x="824" d="M90 390h660q8 0 8 -10l-12 -59q-2 -11 -12 -11h-659q-8 0 -8 11l11 59q1 10 12 10z" />
<glyph unicode="&#x2018;" horiz-adv-x="250" d="M219 680q-31 0 -43.5 -11t-19.5 -44l-4 -22h45q8 0 8 -10l-16 -78q-1 -10 -12 -10h-86q-8 0 -8 10l22 116q9 49 35.5 67.5t70.5 18.5h15q8 0 8 -10l-3 -17q-3 -10 -12 -10z" />
<glyph unicode="&#x2019;" horiz-adv-x="250" d="M113 542q31 0 43.5 11t19.5 44l4 21h-45q-8 0 -8 11l15 78q1 10 13 10h86q8 0 8 -10l-23 -116q-9 -49 -35 -67.5t-70 -18.5h-16q-8 0 -8 10l3 16q3 11 13 11z" />
<glyph unicode="&#x201a;" horiz-adv-x="250" d="M4 -77q31 0 44 11t20 44l4 22h-45q-9 0 -9 10l16 78q1 10 12 10h86q8 0 8 -10l-22 -116q-9 -49 -35.5 -67.5t-70.5 -18.5h-15q-8 0 -8 11l3 16q3 10 12 10z" />
<glyph unicode="&#x201c;" horiz-adv-x="404" d="M373 680q-31 0 -44 -11t-20 -44l-4 -22h45q8 0 8 -10l-15 -78q-1 -10 -12 -10h-86q-8 0 -8 10l22 116q9 49 35.5 67.5t70.5 18.5h15q8 0 8 -10l-3 -17q-3 -10 -12 -10zM219 680q-31 0 -43.5 -11t-19.5 -44l-4 -22h45q8 0 8 -10l-16 -78q-1 -10 -12 -10h-86q-8 0 -8 10 l22 116q9 49 35.5 67.5t70.5 18.5h15q8 0 8 -10l-3 -17q-3 -10 -12 -10z" />
<glyph unicode="&#x201d;" horiz-adv-x="404" d="M113 542q31 0 43.5 11t19.5 44l4 21h-45q-8 0 -8 11l15 78q1 10 13 10h86q8 0 8 -10l-23 -116q-9 -49 -35 -67.5t-70 -18.5h-16q-8 0 -8 10l3 16q3 11 13 11zM266 542q31 0 44 11t20 44l4 21h-45q-8 0 -8 11l15 78q1 10 12 10h86q8 0 8 -10l-22 -116q-9 -49 -35.5 -67.5 t-70.5 -18.5h-15q-8 0 -8 10l3 16q3 11 12 11z" />
<glyph unicode="&#x201e;" horiz-adv-x="404" d="M4 -77q31 0 44 11t20 44l4 22h-45q-9 0 -9 10l16 78q1 10 12 10h86q8 0 8 -10l-22 -116q-9 -49 -35.5 -67.5t-70.5 -18.5h-15q-8 0 -8 11l3 16q3 10 12 10zM158 -77q31 0 43.5 11t19.5 44l4 22h-45q-8 0 -8 10l15 78q1 10 13 10h86q8 0 8 -10l-23 -116q-9 -49 -35 -67.5 t-70 -18.5h-15q-9 0 -9 11l3 16q3 10 13 10z" />
<glyph unicode="&#x2022;" horiz-adv-x="390" d="M103 334q0 40 28.5 68t68.5 28t68 -28t28 -68t-28 -68t-68 -28t-68.5 28t-28.5 68z" />
<glyph unicode="&#x2026;" horiz-adv-x="748" d="M53 98h80q8 0 8 -10l-15 -78q-1 -10 -12 -10h-80q-8 0 -8 10l15 78q1 10 12 10zM288 98h80q8 0 8 -10l-16 -78q-1 -10 -12 -10h-80q-8 0 -8 10l15 78q1 10 13 10zM522 98h80q8 0 8 -10l-15 -78q-1 -10 -12 -10h-80q-8 0 -8 10l15 78q1 10 12 10z" />
<glyph unicode="&#x202f;" horiz-adv-x="188" />
<glyph unicode="&#x2030;" horiz-adv-x="1347" d="M426 557q0 -82 -58.5 -144.5t-149.5 -62.5q-66 0 -109 43t-43 117q0 83 58 145t149 62q66 0 109.5 -43t43.5 -117zM227 413q57 0 95 43t38 95q0 49 -25.5 76t-70.5 27q-57 0 -95 -43t-38 -95q0 -49 25.5 -76t70.5 -27zM856 207q0 -82 -58.5 -144.5t-149.5 -62.5 q-66 0 -109 43t-43 117q0 83 58 145t149 62q66 0 109.5 -43t43.5 -117zM657 62q57 0 95.5 43.5t38.5 95.5q0 49 -26 76t-71 27q-57 0 -95 -43t-38 -95q0 -49 25.5 -76.5t70.5 -27.5zM1270 207q0 -82 -58.5 -144.5t-149.5 -62.5q-66 0 -109.5 43t-43.5 117q0 82 58.5 144.5 t149.5 62.5q66 0 109.5 -43t43.5 -117zM1071 62q57 0 95 43.5t38 95.5q0 49 -25.5 76t-70.5 27q-57 0 -95 -43t-38 -95q0 -49 25.5 -76.5t70.5 -27.5zM96 43l698 671q3 3 7 3t7 -3l22 -26q5 -5 5 -7t-5 -7l-697 -671q-3 -3 -7 -3t-7 3l-23 26q-4 4 -4 7t4 7z" />
<glyph unicode="&#x2039;" horiz-adv-x="366" d="M324 525l-18 -92q-3 -10 -10 -16l-182 -143l127 -143q5 -5 5 -10q0 -2 -1 -6l-17 -79q-2 -7 -7 -7q-3 0 -6 3l-178 202q-7 7 -7 19l11 56q3 11 13 19l258 201q4 3 6 3q6 0 6 -7z" />
<glyph unicode="&#x203a;" horiz-adv-x="366" d="M23 36l17 92q3 10 10 16l182 143l-127 143q-5 5 -5 10q0 2 1 6l17 79q2 7 7 7q3 0 6 -3l178 -202q7 -7 7 -19l-11 -56q-3 -11 -13 -19l-258 -201q-5 -3 -6 -3q-5 0 -5 7z" />
<glyph unicode="&#x2044;" horiz-adv-x="686" d="M-41 43l697 671q3 3 8 3q4 0 7 -3l22 -26q4 -4 4 -7t-4 -7l-697 -671q-3 -3 -7 -3t-7 3l-23 26q-4 4 -4 7t4 7z" />
<glyph unicode="&#x205f;" horiz-adv-x="235" />
<glyph unicode="&#x2070;" horiz-adv-x="381" d="M55 489q0 97 51.5 165.5t140.5 68.5q60 0 94.5 -45t34.5 -117q0 -97 -51.5 -165t-140.5 -68q-60 0 -94.5 44.5t-34.5 116.5zM241 668q-57 0 -90 -51t-33 -121q0 -113 72 -113q57 0 90 51t33 121q0 113 -72 113z" />
<glyph unicode="&#x2074;" horiz-adv-x="371" d="M215 344l12 63h-168q-8 0 -8 10l5 28q2 7 7 13l225 252q7 7 13 7h36q8 0 8 -10l-48 -245h49q9 0 9 -10l-7 -35q-1 -10 -12 -10h-49l-13 -63q-1 -10 -12 -10h-39q-8 0 -8 10zM265 604l-127 -142h100z" />
<glyph unicode="&#x2075;" horiz-adv-x="350" d="M74 517l61 192q3 8 11 8h197q8 0 8 -10l-6 -35q-1 -10 -12 -10h-156l-35 -98q38 24 84 24q47 0 75.5 -29t28.5 -81q0 -68 -44 -109t-113 -41q-46 0 -79 28t-33 69q0 9 1 14q2 11 13 11h36q8 0 8 -11q0 -56 65 -56q37 0 60 23.5t23 61.5q0 28 -14.5 45.5t-43.5 17.5 q-42 0 -77 -28q-6 -4 -8 -4l-5 1l-42 9q-4 1 -4 4z" />
<glyph unicode="&#x2076;" horiz-adv-x="379" d="M63 464q0 61 20 119t64 99t101 41q45 0 76 -26.5t31 -69.5q0 -5 -6 -5h-46q-5 0 -6 5q-7 41 -55 41q-75 0 -103 -118q35 31 89 31q46 0 77 -29.5t31 -78.5q0 -66 -43 -105.5t-111 -39.5q-52 0 -85.5 36t-33.5 100zM211 525q-38 0 -62 -21.5t-24 -58.5q0 -28 17.5 -45 t46.5 -17q36 0 60.5 22t24.5 59q0 29 -17 45t-46 16z" />
<glyph unicode="&#x2077;" horiz-adv-x="282" d="M70 672l7 35q1 10 12 10h232q8 0 8 -10l-3 -17q-1 -3 -8 -16l-170 -331q-4 -9 -14 -9h-43q-6 0 -6 5q0 2 3 8l162 315h-172q-8 0 -8 10z" />
<glyph unicode="&#x2078;" horiz-adv-x="348" d="M100 608q0 54 37.5 84.5t96.5 30.5q45 0 74 -25t29 -67q0 -64 -62 -94q43 -23 43 -80q0 -62 -41.5 -95.5t-107.5 -33.5q-52 0 -84 27.5t-32 73.5q0 75 79 108q-32 30 -32 71zM196 504q-34 0 -57.5 -18.5t-23.5 -52.5q0 -22 16.5 -36t43.5 -14q32 0 56.5 17t24.5 50 q0 25 -15.5 39.5t-44.5 14.5zM226 672q-29 0 -49.5 -16.5t-20.5 -47.5q0 -22 13 -35.5t38 -13.5q29 0 51 17t22 47q0 22 -14.5 35.5t-39.5 13.5z" />
<glyph unicode="&#x2079;" horiz-adv-x="379" d="M362 587q0 -61 -20 -119t-63.5 -99t-100.5 -41q-45 0 -76 26.5t-31 69.5q0 5 6 5h46q5 0 6 -5q7 -41 55 -41q75 0 103 118q-35 -31 -89 -31q-46 0 -77 29.5t-31 78.5q0 66 43 105.5t111 39.5q52 0 85 -36t33 -100zM215 525q38 0 62 21.5t24 58.5q0 28 -17.5 45.5 t-46.5 17.5q-36 0 -60.5 -22t-24.5 -59q0 -30 17 -46t46 -16z" />
<glyph unicode="&#x2080;" horiz-adv-x="381" d="M-27 -47q0 97 51.5 165t140.5 68q60 0 94.5 -44.5t34.5 -116.5q0 -97 -51.5 -165.5t-140.5 -68.5q-60 0 -94.5 45t-34.5 117zM159 131q-57 0 -90 -51t-33 -121q0 -55 19.5 -84t53.5 -29q57 0 89.5 50.5t32.5 121.5q0 113 -72 113z" />
<glyph unicode="&#x2081;" horiz-adv-x="281" d="M53 -193l58 297l-75 -35q-6 -3 -10 -3q-7 0 -7 8l10 45q1 6 9 10l95 47q8 4 17 4h25q8 0 8 -10l-70 -363q-1 -10 -13 -10h-39q-8 0 -8 10z" />
<glyph unicode="&#x2082;" horiz-adv-x="393" d="M-18 -193l5 31q1 10 9 15l185 136q29 22 42 40t13 46q0 25 -16.5 40.5t-44.5 15.5q-31 0 -51.5 -18.5t-29.5 -47.5q-3 -11 -12 -11h-42q-8 0 -8 11q11 54 49.5 87.5t100.5 33.5q53 0 84 -30t31 -74q0 -75 -82 -136l-130 -93h166q8 0 8 -11l-6 -35q-1 -10 -12 -10h-251 q-8 0 -8 10z" />
<glyph unicode="&#x2083;" horiz-adv-x="385" d="M95 -20l7 34q2 11 12 11h20q31 0 54 15.5t23 46.5q0 20 -13 33.5t-38 13.5q-55 0 -73 -52q-3 -8 -11 -8h-38q-8 0 -8 9q11 48 47.5 75t90.5 27q48 0 76 -25.5t28 -64.5q0 -66 -64 -94q43 -22 43 -80q0 -64 -40.5 -97.5t-105.5 -33.5q-49 0 -82 29t-33 73q0 6 1 14 q1 10 12 10h37q8 0 8 -10q0 -29 18.5 -45t49.5 -16q34 0 54.5 18t20.5 52q0 25 -15 39.5t-44 14.5h-29q-8 0 -8 11z" />
<glyph unicode="&#x2084;" horiz-adv-x="371" d="M130 -193l12 63h-168q-8 0 -8 10l5 29q1 6 7 12l225 252q7 7 13 7h36q8 0 8 -10l-48 -245h49q9 0 9 -10l-7 -35q-1 -10 -12 -10h-49l-13 -63q-1 -10 -12 -10h-39q-8 0 -8 10zM180 68l-127 -143h100z" />
<glyph unicode="&#x2085;" horiz-adv-x="350" d="M2 -19l61 191q3 8 12 8h196q9 0 9 -10l-7 -35q-1 -10 -12 -10h-156l-34 -97q36 23 84 23q47 0 75 -28.5t28 -80.5q0 -68 -44 -109.5t-113 -41.5q-46 0 -78.5 27.5t-32.5 69.5q0 10 1 15q1 10 12 10h36q8 0 8 -10q0 -27 17.5 -42t48.5 -15q37 0 60 23.5t23 61.5 q0 28 -15 46t-44 18q-41 0 -77 -29q-6 -4 -8 -4l-5 1l-42 9q-4 1 -4 4z" />
<glyph unicode="&#x2086;" horiz-adv-x="379" d="M12 -73q0 61 20 119t64 99t101 41q45 0 76 -26.5t31 -69.5q0 -5 -6 -5h-46q-5 0 -6 5q-7 41 -56 41q-74 0 -102 -118q35 31 89 31q46 0 77 -29t31 -78q0 -67 -43 -106.5t-111 -39.5q-52 0 -85.5 36t-33.5 100zM160 -11q-38 0 -62 -21.5t-24 -58.5q0 -28 17.5 -45.5 t46.5 -17.5q36 0 60.5 22t24.5 59q0 30 -17 46t-46 16z" />
<glyph unicode="&#x2087;" horiz-adv-x="282" d="M-25 135l8 35q1 10 12 10h231q8 0 8 -10l-3 -16q-1 -7 -7 -17l-170 -331q-4 -9 -14 -9h-43q-6 0 -6 5q0 3 3 9l162 314h-172q-9 0 -9 10z" />
<glyph unicode="&#x2088;" horiz-adv-x="348" d="M17 72q0 54 38 84t97 30q44 0 73 -25t29 -67q0 -64 -61 -94q43 -23 43 -80q0 -62 -42 -95.5t-108 -33.5q-52 0 -84 27.5t-32 73.5q0 75 79 108q-32 30 -32 72zM113 -33q-34 0 -57.5 -18.5t-23.5 -51.5q0 -22 16.5 -36.5t43.5 -14.5q32 0 56.5 17t24.5 50q0 25 -15.5 39.5 t-44.5 14.5zM143 135q-29 0 -49.5 -16t-20.5 -47q0 -22 13 -35.5t38 -13.5q30 0 51.5 16.5t21.5 46.5q0 22 -14.5 35.5t-39.5 13.5z" />
<glyph unicode="&#x2089;" horiz-adv-x="379" d="M284 50q0 -61 -20 -119t-64 -99t-101 -41q-45 0 -76 26.5t-31 69.5q0 5 6 5h46q5 0 6 -5q7 -41 55 -41q75 0 103 118q-35 -31 -89 -31q-46 0 -77 29.5t-31 78.5q0 66 43 105.5t111 39.5q52 0 85.5 -36t33.5 -100zM136 -11q38 0 62 21.5t24 58.5q0 28 -17.5 45t-46.5 17 q-36 0 -60.5 -22t-24.5 -59q0 -29 17 -45t46 -16z" />
<glyph unicode="&#x20ac;" horiz-adv-x="692" d="M55 493h83q47 116 128.5 175t180.5 59q110 0 168.5 -62.5t58.5 -167.5q-3 -11 -12 -11h-63q-6 0 -8 11q-6 82 -43 116t-112 34q-136 0 -210 -154h217q9 0 9 -11l-12 -59q-3 -10 -12 -10h-230q-13 -49 -14 -55q-3 -19 -7 -54h230q8 0 8 -10l-12 -60q-1 -10 -12 -10h-215 q14 -154 149 -154q146 0 210 150q4 10 12 10h64q9 0 9 -10q-37 -112 -116 -171t-190 -59q-96 0 -157.5 61.5t-68.5 172.5h-84q-8 0 -8 10l11 60q3 10 11 10h71q1 5 4 24t5 30q5 33 12 55h-70q-8 0 -8 10l11 59q2 11 12 11z" />
<glyph unicode="&#x2122;" horiz-adv-x="719" d="M67 672l7 35q1 10 12 10h248q8 0 8 -10l-7 -35q-1 -10 -12 -10h-95l-61 -318q-1 -10 -12 -10h-39q-8 0 -8 10l61 318h-94q-8 0 -8 10zM732 707l-70 -363q-1 -10 -13 -10h-39q-8 0 -8 10l56 293l-134 -235q-4 -6 -9 -6h-34q-5 0 -7 6l-46 235l-56 -293q-1 -10 -13 -10h-38 q-9 0 -9 10l71 363q1 10 12 10h60q9 0 10 -8l44 -233l131 233q4 8 14 8h70q8 0 8 -10z" />
<glyph unicode="&#x2153;" horiz-adv-x="911" d="M644 183l7 35q1 10 12 10h20q31 0 54 16t23 47q0 20 -13 33.5t-38 13.5q-55 0 -73 -52q-3 -8 -11 -8h-38q-8 0 -8 9q11 48 47.5 75t90.5 27q48 0 76 -25.5t28 -64.5q0 -66 -64 -94q43 -22 43 -80q0 -64 -40.5 -97.5t-105.5 -33.5q-49 0 -82 29t-33 73q0 6 1 14 q1 10 12 10h37q8 0 8 -10q0 -29 18.5 -45t49.5 -16q34 0 54.5 18t20.5 52q0 25 -15 39.5t-44 14.5h-29q-8 0 -8 10zM60 43l698 671q3 3 7 3t7 -3l23 -26q4 -4 4 -7t-4 -7l-698 -671q-3 -3 -7 -3t-7 3l-23 26q-4 4 -4 7t4 7zM132 344l57 297l-74 -36q-6 -3 -11 -3q-6 0 -6 8 l10 45q1 7 9 11l95 47q8 4 16 4h26q8 0 8 -10l-71 -363q-1 -10 -12 -10h-39q-8 0 -8 10z" />
<glyph unicode="&#x2154;" horiz-adv-x="993" d="M726 183l7 35q1 10 11 10h21q31 0 54 16t23 47q0 20 -13 33.5t-38 13.5q-55 0 -73 -52q-3 -8 -11 -8h-38q-9 0 -9 9q11 47 47.5 74.5t91.5 27.5q48 0 76 -25.5t28 -64.5q0 -66 -64 -94q43 -22 43 -80q0 -64 -40.5 -97.5t-105.5 -33.5q-49 0 -82 29t-33 73q0 6 1 14 q1 10 12 10h37q8 0 8 -10q0 -29 18 -45t49 -16q34 0 55 18t21 52q0 25 -15 39.5t-44 14.5h-29q-8 0 -8 10zM153 43l697 671q3 3 7 3t7 -3l23 -26q4 -4 4 -7t-4 -7l-698 -671q-3 -3 -7 -3t-7 3l-22 26q-5 5 -5 7t5 7zM60 344l6 31q1 9 9 14l185 136q28 21 41 39.5t13 46.5 q0 26 -16 41.5t-44 15.5q-30 0 -51 -19t-30 -48q-3 -10 -12 -10h-42q-8 0 -8 10q11 54 49.5 88t100.5 34q53 0 84 -30t31 -75q0 -75 -82 -136l-130 -93h166q8 0 8 -10l-6 -35q-1 -10 -13 -10h-250q-9 0 -9 10z" />
<glyph unicode="&#x215b;" horiz-adv-x="910" d="M573 274q0 54 38 84.5t97 30.5q44 0 73 -25t29 -67q0 -64 -61 -94q43 -23 43 -80q0 -62 -42 -95.5t-108 -33.5q-52 0 -84 27.5t-32 73.5q0 75 79 108q-32 30 -32 71zM669 170q-34 0 -57.5 -18.5t-23.5 -52.5q0 -22 16.5 -36t43.5 -14q32 0 56.5 17t24.5 50 q0 25 -15.5 39.5t-44.5 14.5zM699 338q-29 0 -49.5 -16.5t-20.5 -47.5q0 -22 13 -35.5t38 -13.5q29 0 51 17t22 47q0 22 -14.5 35.5t-39.5 13.5zM55 43l698 671q3 3 7 3t7 -3l23 -26q4 -4 4 -7t-4 -7l-698 -671q-3 -3 -7 -3t-7 3l-23 26q-4 4 -4 7t4 7zM127 344l57 297 l-74 -36q-6 -3 -11 -3q-6 0 -6 8l9 45q1 7 10 11l95 47q8 4 16 4h26q8 0 8 -10l-71 -363q-1 -10 -12 -10h-39q-8 0 -8 10z" />
<glyph unicode="&#x215c;" horiz-adv-x="932" d="M168 517l7 35q1 10 11 10h21q31 0 54 16t23 47q0 20 -13.5 33.5t-38.5 13.5q-54 0 -72 -52q-3 -9 -12 -9h-37q-9 0 -9 10q11 47 47.5 74.5t91.5 27.5q48 0 76 -25.5t28 -64.5q0 -66 -64 -94q43 -22 43 -80q0 -64 -40.5 -97.5t-105.5 -33.5q-49 0 -82.5 29t-33.5 73 q0 5 1 13q2 11 13 11h37q8 0 8 -11q0 -29 18 -44.5t49 -15.5q34 0 55 18t21 52q0 25 -15 39.5t-44 14.5h-29q-8 0 -8 10zM78 43l697 671q3 3 7 3q5 0 8 -3l22 -26q4 -4 4 -7t-4 -7l-697 -671q-3 -3 -7 -3q-5 0 -8 3l-22 26q-4 4 -4 7t4 7zM596 274q0 54 37.5 84.5t96.5 30.5 q45 0 74 -25t29 -67q0 -64 -62 -94q43 -23 43 -80q0 -62 -41.5 -95.5t-107.5 -33.5q-52 0 -84 27.5t-32 73.5q0 75 79 108q-32 30 -32 71zM691 170q-34 0 -57.5 -18.5t-23.5 -52.5q0 -22 17 -36t44 -14q32 0 56.5 17t24.5 50q0 25 -16 39.5t-45 14.5zM722 338 q-29 0 -50 -16.5t-21 -47.5q0 -22 13 -35.5t38 -13.5q29 0 51 17t22 47q0 23 -14 36t-39 13z" />
<glyph unicode="&#x215d;" horiz-adv-x="941" d="M77 517l61 192q3 8 12 8h196q8 0 8 -10l-6 -35q-1 -10 -12 -10h-156l-35 -98q38 24 84 24q47 0 75.5 -29t28.5 -81q0 -68 -44 -109t-113 -41q-46 0 -78.5 27.5t-32.5 69.5q0 9 1 14q2 11 12 11h36q8 0 8 -11q0 -56 65 -56q37 0 60 23.5t23 61.5q0 28 -14.5 45.5 t-43.5 17.5q-42 0 -77 -28q-6 -4 -8 -4l-5 1l-42 9q-4 1 -4 4zM86 43l697 671q3 3 8 3q4 0 7 -3l22 -26q4 -4 4 -7t-4 -7l-697 -671q-3 -3 -7 -3t-7 3l-23 26q-4 4 -4 7t4 7zM604 274q0 54 37.5 84.5t96.5 30.5q45 0 74 -25t29 -67q0 -64 -62 -94q43 -23 43 -80 q0 -62 -41.5 -95.5t-107.5 -33.5q-52 0 -84 27.5t-32 73.5q0 75 79 108q-32 30 -32 71zM699 170q-34 0 -57.5 -18.5t-23.5 -52.5q0 -22 17 -36t44 -14q32 0 56.5 17t24.5 50q0 25 -16 39.5t-45 14.5zM730 338q-29 0 -50 -16.5t-21 -47.5q0 -22 13.5 -35.5t38.5 -13.5 q29 0 50.5 17t21.5 47q0 23 -14 36t-39 13z" />
<glyph unicode="&#x215e;" horiz-adv-x="918" d="M132 672l7 35q1 10 13 10h231q8 0 8 -10l-3 -17q-1 -6 -7 -16l-170 -331q-5 -9 -14 -9h-43q-7 0 -7 5l4 8l161 315h-172q-8 0 -8 10zM63 43l698 671q3 3 7 3t7 -3l23 -26q4 -4 4 -7t-4 -7l-698 -671q-3 -3 -7 -3t-7 3l-23 26q-4 4 -4 7t4 7zM582 274q0 54 37.5 84.5 t96.5 30.5q44 0 73 -25t29 -67q0 -64 -61 -94q43 -23 43 -80q0 -62 -42 -95.5t-108 -33.5q-51 0 -83 27.5t-32 73.5q0 75 78 108q-31 29 -31 71zM677 170q-34 0 -57.5 -18.5t-23.5 -52.5q0 -22 16.5 -36t43.5 -14q32 0 56.5 17t24.5 50q0 25 -15.5 39.5t-44.5 14.5zM708 338 q-29 0 -50 -16.5t-21 -47.5q0 -22 13 -35.5t38 -13.5q29 0 51 17t22 47q0 23 -14 36t-39 13z" />
<glyph unicode="&#x25fc;" horiz-adv-x="512" d="M0 512h512v-512h-512v512z" />
<glyph unicode="&#xfb01;" horiz-adv-x="661" d="M369 438h-158l-84 -428q-1 -10 -12 -10h-64q-8 0 -8 10l84 428h-84q-8 0 -8 11l10 55q1 10 12 10h84l14 66q30 147 172 147q44 0 98 -26q7 -4 7 -14l-10 -50q-2 -9 -9 -9q-3 0 -7 2q-45 21 -85 21q-69 0 -84 -79l-12 -58h158q8 0 8 -10l-10 -55q-3 -11 -12 -11zM406 10 l96 494q1 10 12 10h64q8 0 8 -10l-97 -494q-1 -10 -12 -10h-63q-8 0 -8 10zM510 618l17 89q1 10 13 10h92q8 0 8 -10l-17 -89q-1 -10 -13 -10h-92q-8 0 -8 10z" />
<glyph unicode="&#xfb02;" horiz-adv-x="650" d="M369 438h-158l-84 -428q-1 -10 -12 -10h-64q-8 0 -8 10l84 428h-84q-8 0 -8 11l10 55q1 10 12 10h84l14 66q30 147 172 147q44 0 98 -26q7 -4 7 -14l-10 -50q-2 -9 -9 -9q-3 0 -7 2q-45 21 -85 21q-69 0 -84 -79l-12 -58h158q8 0 8 -10l-10 -55q-3 -11 -12 -11zM406 10 l136 697q1 10 12 10h63q9 0 9 -10l-137 -697q-1 -10 -12 -10h-63q-8 0 -8 10z" />
<glyph horiz-adv-x="521" d="M96 202q2 10 2 14h-71q-9 0 -9 10l11 54q1 10 12 10h45q-5 17 -5 43q0 85 61.5 138t148.5 53q76 0 121.5 -40t45.5 -101q0 -9 -1 -18q-2 -11 -13 -11h-59q-8 0 -8 11q0 38 -24 61t-71 23q-51 0 -84 -35.5t-33 -85.5q0 -23 5 -38h180q8 0 8 -10l-10 -54q-3 -10 -12 -10 h-154q0 -7 -2 -17q-9 -43 -29 -71t-55 -52h303q9 0 9 -10l-11 -56q-3 -10 -12 -10h-385q-8 0 -8 10l9 48q2 13 11 21q41 34 59 60.5t25 62.5z" />
<glyph horiz-adv-x="518" d="M436 165q0 -80 -56.5 -124t-146.5 -50l-16 -83q-1 -10 -12 -10h-60q-8 0 -8 10l17 86q-63 11 -101 47.5t-38 88.5q0 18 2 27q3 10 13 10h63q8 0 8 -10q0 -71 68 -87l32 164q-63 14 -99.5 46.5t-36.5 77.5q0 79 52 119t140 46l16 81q1 10 13 10h59q8 0 8 -10l-17 -85 q59 -13 92 -51t33 -91q0 -10 -12 -10h-58q-7 0 -8 10q-4 49 -61 65l-30 -151q144 -31 144 -126zM348 151q0 44 -70 66l-30 -149q42 5 71 25.5t29 57.5zM148 372q0 -24 16 -38.5t51 -25.5l28 139q-41 -4 -68 -22.5t-27 -52.5z" />
<glyph horiz-adv-x="491" d="M65 312h87l-81 192q0 10 8 10h75q9 0 12 -8l73 -182l143 182q7 8 14 8h79q6 0 6 -5q0 -2 -2 -5l-154 -192h86q8 0 8 -10l-10 -55q-3 -10 -13 -10h-133l-14 -73h112q9 0 9 -10l-12 -56q-1 -10 -12 -10h-112l-15 -78q-1 -10 -12 -10h-60q-8 0 -8 10l16 78h-114q-8 0 -8 10 l11 56q1 10 12 10h113l14 73h-133q-8 0 -8 10l10 55q1 10 13 10z" />
<glyph horiz-adv-x="574" d="M165 -90l16 87q-73 18 -112.5 78t-39.5 144q0 119 70.5 202.5t185.5 99.5l16 85q1 10 12 10h66q8 0 8 -10l-16 -84q66 -11 111.5 -59t46.5 -114q0 -11 -9 -11h-62q-12 0 -14 9q-12 84 -89 99l-73 -377q80 12 127 100q5 9 15 9h64q7 0 7 -6q0 -4 -3 -10 q-70 -157 -226 -170l-15 -82q-1 -10 -12 -10h-66q-8 0 -8 10zM117 220q0 -117 80 -145l72 367q-69 -18 -110.5 -79t-41.5 -143z" />
<glyph horiz-adv-x="499" d="M433 384l-146 -126l99 -125q2 -3 2 -6t-5 -8l-45 -39q-4 -4 -8 -4q-2 0 -6 4l-102 128l-151 -131q-4 -4 -8 -4q-3 0 -7 4l-40 48q-2 3 -2 6q0 4 5 8l155 129l-99 118q-2 3 -2 6q0 4 5 8l46 39q5 4 8 4q2 0 6 -4l99 -121l146 125q5 4 8 4q2 0 6 -4l39 -45q2 -3 2 -6t-5 -8 z" />
<glyph horiz-adv-x="569" d="M361 474l-34 -176h176q8 0 8 -10l-11 -60q-1 -10 -13 -10h-176l-35 -176q-1 -10 -11 -10h-63q-9 0 -9 10l34 176h-176q-8 0 -8 10l11 60q1 10 13 10h176l35 176q1 10 11 10h63q9 0 9 -10z" />
<glyph horiz-adv-x="565" d="M54 256h432q9 0 9 -10l-12 -60q-1 -10 -12 -10h-432q-8 0 -8 10l11 60q1 10 12 10zM200 98h80q8 0 8 -10l-16 -78q-1 -10 -12 -10h-80q-8 0 -8 10l15 78q1 10 13 10zM265 432h80q8 0 8 -10l-15 -78q-1 -10 -12 -10h-80q-8 0 -8 10l15 78q1 10 12 10z" />
<glyph horiz-adv-x="618" d="M33 226h57q3 37 11 62h-57q-8 0 -8 10l11 55q2 11 12 11h74q79 160 244 160q89 0 141 -51t52 -123q-1 -10 -12 -10h-60q-8 0 -9 10q-4 45 -33.5 72t-83.5 27q-104 0 -155 -85h128q8 0 8 -11l-11 -55q-1 -10 -12 -10h-145q-9 -28 -11 -62h144q9 0 9 -10l-12 -55 q-1 -10 -12 -10h-128q20 -85 122 -85q108 0 157 98q4 10 12 10h60q9 0 9 -10q-65 -174 -249 -174q-78 0 -130 43t-62 118h-77q-8 0 -8 10l11 55q1 10 13 10z" />
<glyph horiz-adv-x="633" d="M116 392h432q8 0 8 -10l-11 -59q-3 -11 -13 -11h-432q-8 0 -8 11l11 59q1 10 13 10zM75 184h432q8 0 8 -10l-11 -59q-2 -11 -12 -11h-433q-8 0 -8 11l11 59q1 10 13 10z" />
<glyph horiz-adv-x="635" d="M29 219q0 132 87 218.5t222 86.5q102 0 168 -62t66 -167q0 -132 -87 -218.5t-222 -86.5q-102 0 -168 62t-66 167zM328 449q-91 0 -151 -63t-60 -156q0 -75 41 -119.5t115 -44.5q91 0 151 62.5t60 155.5q0 75 -41 120t-115 45z" />
<glyph horiz-adv-x="337" d="M100 10l75 391l-113 -55q-7 -3 -12 -3t-5 9l13 69q1 9 15 15l144 73q10 5 16 5h38q9 0 9 -10l-96 -494q-1 -10 -12 -10h-63q-9 0 -9 10z" />
<glyph horiz-adv-x="505" d="M3 10l8 43q3 13 15 24l244 172q43 30 64 56t21 65q0 35 -22 57t-62 22q-43 0 -74 -26.5t-42 -67.5q-4 -15 -17 -15h-56q-9 0 -9 15q18 81 75.5 125t132.5 44q74 0 116 -38.5t42 -99.5q0 -104 -103 -178l-188 -132h240q8 0 8 -10l-10 -56q-1 -10 -12 -10h-363q-8 0 -8 10z " />
<glyph horiz-adv-x="550" d="M197 185l11 56q1 10 12 10h40q61 0 99 28.5t38 85.5q0 38 -25 61t-72 23q-45 0 -82 -27t-50 -75q-3 -11 -14 -11h-54q-11 0 -11 15q18 81 78.5 127t140.5 46q82 0 127.5 -41.5t45.5 -103.5q0 -115 -111 -161q74 -41 74 -141q0 -109 -65.5 -163.5t-173.5 -54.5 q-80 0 -137.5 46.5t-57.5 122.5q0 7 2 23q1 16 16 16h54q10 0 10 -13q0 -2 -0.5 -7t-0.5 -8q0 -51 32 -78t88 -27q64 0 106.5 34.5t42.5 98.5q0 52 -30.5 80t-81.5 28h-43q-8 0 -8 10z" />
<glyph horiz-adv-x="544" d="M234 -131l26 131h-272q-8 0 -8 10l6 30q2 12 12 23l375 443q6 8 15 8h46q8 0 8 -10l-83 -428h86q9 0 9 -10l-12 -56q-1 -10 -12 -10h-86l-26 -131q-1 -10 -13 -10h-62q-9 0 -9 10zM328 341l-228 -265h175z" />
<glyph horiz-adv-x="547" d="M34 161l103 343q3 10 13 10h338q9 0 9 -10l-12 -55q-2 -11 -12 -11h-276l-61 -188q65 48 146 48q85 0 129 -53.5t44 -133.5q0 -113 -70 -182.5t-187 -69.5q-78 0 -133 46.5t-55 119.5q0 16 1 24q1 16 16 16h52q10 0 10 -16q4 -115 120 -115q70 0 116 45.5t46 116.5 q0 59 -29.5 92.5t-82.5 33.5q-79 0 -140 -62q-9 -9 -19 -9h-58q-8 0 -8 10z" />
<glyph horiz-adv-x="569" d="M37 215q0 74 18.5 148.5t53.5 141t95.5 108.5t135.5 42t124 -43.5t49 -113.5q0 -6 -1 -16t-13 -10h-55q-7 0 -9 10q-7 98 -103 98q-132 0 -186 -205q65 55 162 55q76 0 125 -49t49 -138q0 -111 -69 -182t-186 -71q-86 0 -138 58t-52 167zM280 354q-69 0 -114 -47 t-45 -119q0 -56 33.5 -89t81.5 -33q70 0 114 45t44 116q0 57 -31 92t-83 35z" />
<glyph horiz-adv-x="460" d="M53 449l12 55q1 10 12 10h370q9 0 9 -10l-7 -35q-1 -6 -10 -22l-318 -581q-3 -7 -13 -7h-60q-8 0 -8 7q0 3 2 6l310 566h-291q-8 0 -8 11z" />
<glyph horiz-adv-x="535" d="M105 465q0 82 61.5 136t154.5 54q71 0 119 -41.5t48 -113.5q0 -49 -28.5 -93.5t-76.5 -67.5q29 -19 48 -53.5t19 -76.5q-1 -102 -67.5 -160.5t-172.5 -58.5q-81 0 -131.5 46.5t-50.5 118.5q0 68 32 112.5t97 76.5q-52 46 -52 121zM257 299q-61 0 -103 -36t-42 -97 q0 -48 30 -74t81 -26q61 0 102 35t41 98q0 45 -31.5 72.5t-77.5 27.5zM311 580q-53 0 -89.5 -31t-36.5 -86q0 -40 27 -64t70 -24q50 0 86 29.5t36 82.5q0 42 -26 67.5t-67 25.5z" />
<glyph horiz-adv-x="572" d="M493 299q0 -74 -18.5 -148.5t-54 -141t-96 -108.5t-135.5 -42t-124 43.5t-49 113.5q0 6 1 16t14 10h54q7 0 9 -10q7 -98 104 -98q131 0 185 205q-65 -55 -162 -55q-76 0 -125 49t-49 138q0 111 69 182t186 71q86 0 138.5 -58t52.5 -167zM250 160q69 0 114 47t45 119 q0 56 -33.5 89.5t-81.5 33.5q-70 0 -114.5 -45.5t-44.5 -116.5q0 -57 31.5 -92t83.5 -35z" />
<glyph horiz-adv-x="659" d="M624 348h-95l-21 -109q-25 -129 -98.5 -189t-181.5 -60q-93 0 -147 55.5t-54 134.5q0 161 159 218q-62 50 -62 131q0 91 64.5 144.5t167.5 53.5h94q9 0 9 -10l-13 -60q-1 -10 -12 -10h-90q-61 0 -101 -31t-40 -91q0 -44 32.5 -70.5t86.5 -26.5h139l19 101q2 11 13 11h63 q8 0 8 -11l-19 -101h94q9 0 9 -11l-11 -58q-3 -11 -13 -11zM424 239l21 109h-152q-74 0 -126 -43.5t-52 -116.5q0 -56 34 -87t92 -31q68 0 117 42t66 127z" />
<glyph horiz-adv-x="404" d="M205 274l-20 -97q-6 -30 -6 -45q0 -50 57 -50h39q9 0 9 -10l-13 -62q-1 -10 -12 -10h-40q-130 0 -130 118q0 23 6 59l16 81q3 15 3 23q0 36 -45 36h-31q-8 0 -8 11l11 61q1 10 12 10h31q56 0 67 60l15 81q19 99 65 138t125 39h43q9 0 9 -10l-13 -62q-1 -10 -12 -10h-40 q-69 0 -90 -107l-16 -86q-12 -68 -78 -84q47 -13 47 -63q0 -13 -1 -21z" />
<glyph horiz-adv-x="404" d="M200 442l19 98q6 30 6 45q0 50 -56 50h-40q-8 0 -8 10l12 62q1 10 12 10h40q130 0 130 -118q0 -23 -6 -59l-15 -81q-3 -15 -3 -23q0 -37 45 -37h31q8 0 8 -10l-11 -61q-2 -11 -13 -11h-30q-57 0 -67 -59l-15 -81q-19 -99 -65.5 -138t-125.5 -39h-43q-8 0 -8 10l12 62 q1 10 13 10h39q70 0 91 106l16 86q12 68 78 84q-47 13 -47 64q0 12 1 20z" />
<glyph horiz-adv-x="428" d="M29 10l136 697q1 10 12 10h257q8 0 8 -10l-12 -62q-1 -10 -12 -10h-177l-108 -553h177q8 0 8 -10l-12 -62q-1 -10 -12 -10h-257q-8 0 -8 10z" />
<glyph horiz-adv-x="428" d="M399 707l-136 -697q-1 -10 -12 -10h-257q-8 0 -8 10l12 62q1 10 12 10h177l108 553h-177q-8 0 -8 10l12 62q1 10 12 10h257q8 0 8 -10z" />
<glyph horiz-adv-x="349" d="M158 343q-10 -57 -10 -88q0 -63 24 -103t82 -87q3 -3 3 -6q0 -4 -5 -9l-45 -48q-4 -4 -8 -4q-5 0 -8 3q-135 105 -135 249q0 32 6 64l21 108q21 108 77.5 172t160.5 124q4 2 7 2q4 0 6 -3l37 -55q2 -3 2 -7q0 -3 -6 -8q-67 -45 -99 -72t-61.5 -77.5t-43.5 -125.5z" />
<glyph horiz-adv-x="349" d="M197 375q9 51 9 88q0 63 -24 103t-82 87q-3 3 -3 5q0 5 5 10l45 48q4 4 9 4q4 0 7 -3q135 -105 135 -249q0 -33 -6 -65l-21 -107q-21 -108 -77.5 -172t-159.5 -124q-4 -2 -7 -2q-5 0 -7 3l-36 55q-2 3 -2 6q0 4 6 9q67 44 99 71.5t61 78t43 125.5z" />
<glyph horiz-adv-x="407" d="M219 267l-35 -179q-7 -35 -7 -52q0 -29 13 -41.5t42 -12.5h40q9 0 9 -11l-13 -61q-1 -10 -12 -10h-42q-58 0 -92.5 35t-34.5 100q0 22 7 64l30 152q2 14 2 20q0 47 -53 47h-27q-8 0 -8 11l11 61q1 10 12 10h27q65 0 78 68l30 152q22 113 65 156t132 43h42q8 0 8 -10 l-12 -61q-2 -11 -12 -11h-40q-37 0 -58 -26t-31 -80l-35 -179q-7 -39 -26 -60.5t-56 -32.5q48 -16 48 -71q0 -8 -2 -21z" />
<glyph horiz-adv-x="407" d="M185 452l35 179q7 35 7 52q0 29 -13 41.5t-42 12.5h-40q-8 0 -8 11l12 61q1 10 12 10h42q58 0 92.5 -35t34.5 -100q0 -22 -7 -64l-29 -152q-2 -14 -2 -21q0 -47 53 -47h26q9 0 9 -10l-12 -61q-2 -11 -12 -11h-27q-64 0 -77 -67l-30 -152q-22 -113 -65.5 -156t-132.5 -43 h-42q-8 0 -8 10l12 61q2 11 13 11h40q37 0 58 26t31 80l35 179q7 39 25.5 60t55.5 32q-48 16 -48 72q0 8 2 21z" />
<glyph horiz-adv-x="457" d="M-9 -90l175 899q1 10 12 10h257q8 0 8 -10l-12 -61q-2 -11 -12 -11h-177l-147 -755h177q9 0 9 -11l-13 -61q-1 -10 -12 -10h-257q-8 0 -8 10z" />
<glyph horiz-adv-x="457" d="M439 809l-175 -899q-1 -10 -12 -10h-257q-8 0 -8 10l12 61q2 11 12 11h177l147 755h-177q-8 0 -8 11l12 61q1 10 12 10h257q8 0 8 -10z" />
<glyph horiz-adv-x="396" d="M207 431l-28 -140q-16 -86 -16 -136q0 -56 21.5 -94.5t81.5 -100.5q3 -3 3 -6q0 -4 -4 -8l-42 -48q-5 -6 -8 -6q-2 0 -7 5q-68 66 -100.5 124.5t-32.5 128.5q0 49 11 109l40 204q25 126 77.5 197t182.5 165q4 3 7 3t6 -4l36 -49q2 -3 2 -6q0 -4 -5 -8 q-80 -59 -118.5 -97.5t-64 -92.5t-42.5 -140z" />
<glyph horiz-adv-x="396" d="M195 290l27 140q17 92 17 136q0 56 -22 94t-82 101q-3 3 -3 6q0 4 4 8l42 48q4 5 8 5t8 -4q68 -66 100.5 -124.5t32.5 -128.5q0 -44 -12 -109l-40 -204q-25 -126 -77.5 -197t-182.5 -165q-6 -4 -7 -4q-3 0 -6 5l-36 49q-2 3 -2 6q0 4 5 8q116 85 159 145.5t67 184.5z" />
<glyph horiz-adv-x="390" d="M104 358q0 40 28.5 68.5t68.5 28.5t68 -28.5t28 -68.5t-28 -68t-68 -28t-68.5 28t-28.5 68z" />
<glyph horiz-adv-x="359" d="M151 0h-70q-8 0 -8 10l97 499q1 10 12 10h70q8 0 8 -10l-97 -499q-1 -10 -12 -10zM279 614h-86q-9 0 -9 11l17 82q1 10 12 10h86q8 0 8 -10l-16 -82q-2 -11 -12 -11z" />
<glyph horiz-adv-x="560" d="M485 193q-23 -89 -90.5 -146t-168.5 -57q-82 0 -134 45t-52 124q0 46 21.5 82.5t53.5 62t64.5 48.5t59 53.5t33.5 65.5l8 38q1 10 12 10h69q9 0 9 -10l-6 -31q-10 -52 -38.5 -92t-60.5 -63.5t-63 -45.5t-51.5 -49.5t-20.5 -63.5q0 -43 28.5 -67.5t79.5 -24.5 q55 0 96.5 30.5t62.5 90.5q3 10 13 10h67q8 0 8 -10zM388 614h-86q-8 0 -8 11l16 82q1 10 13 10h86q8 0 8 -10l-17 -82q-2 -11 -12 -11z" />
<glyph horiz-adv-x="827" d="M722 426q0 115 -66 176.5t-191 61.5q-158 0 -253.5 -100t-95.5 -246q0 -134 78 -212.5t192 -78.5q118 0 205 46q2 1 5 1q4 0 6 -5l21 -45q1 -2 1 -5t-8 -8q-99 -48 -233 -48q-138 0 -238.5 96.5t-100.5 254.5q0 179 115.5 296t316.5 117q136 0 226 -82t90 -206 t-52.5 -208t-143.5 -84q-34 0 -59 17.5t-33 45.5q-67 -63 -147 -63q-65 0 -106 45.5t-41 116.5q0 104 65.5 174t164.5 70q83 0 115 -57l14 42q3 8 11 8h47q6 0 6 -8l-65 -215q-11 -36 -11 -65q0 -53 48 -53q54 0 85.5 67.5t31.5 153.5zM522 393q0 103 -82 103 q-76 0 -117.5 -55t-41.5 -129q0 -52 24 -79.5t62 -27.5q73 0 114 61.5t41 126.5z" />
<glyph horiz-adv-x="366" d="M341 609l-17 -92q-3 -9 -11 -16l-182 -143l127 -143q5 -5 5 -10q0 -2 -1 -6l-16 -79q-2 -7 -7 -7q-4 0 -7 3l-178 202q-7 7 -7 19l11 56q3 10 14 19l258 201q4 3 6 3q5 0 5 -7z" />
<glyph horiz-adv-x="366" d="M43 108l17 92q3 9 11 16l182 142l-127 144q-5 5 -5 10q0 2 1 6l16 79q2 7 7 7q4 0 7 -3l178 -203q7 -7 7 -18l-11 -56q-3 -10 -14 -19l-258 -202q-4 -3 -6 -3q-5 0 -5 8z" />
<glyph horiz-adv-x="584" d="M559 609l-17 -92q-3 -9 -11 -16l-182 -143l127 -143q5 -5 5 -10q0 -2 -1 -6l-16 -79q-2 -7 -7 -7q-3 0 -6 3l-179 202q-7 7 -7 19l11 56q3 10 14 19l258 201q4 3 6 3q5 0 5 -7zM341 609l-17 -92q-3 -9 -11 -16l-182 -143l127 -143q5 -5 5 -10q0 -2 -1 -6l-16 -79 q-2 -7 -7 -7q-4 0 -7 3l-178 202q-7 7 -7 19l11 56q3 10 14 19l258 201q4 3 6 3q5 0 5 -7z" />
<glyph horiz-adv-x="584" d="M43 108l17 92q3 9 11 16l182 142l-127 144q-5 5 -5 10q0 2 1 6l16 79q2 7 7 7q4 0 7 -3l178 -203q7 -7 7 -18l-11 -56q-3 -10 -14 -19l-258 -202q-4 -3 -6 -3q-5 0 -5 8zM261 108l18 92q3 10 10 16l182 142l-127 144q-5 5 -5 10q0 2 1 6l16 79q2 7 8 7q3 0 6 -3l178 -203 q7 -7 7 -18l-11 -56q-3 -10 -14 -19l-258 -202q-4 -3 -6 -3q-5 0 -5 8z" />
<glyph d="M35 273q0 83 21.5 161.5t62 145t108.5 107t153 40.5q97 0 158.5 -74t61.5 -210q0 -83 -21.5 -161.5t-62 -144.5t-108.5 -106.5t-153 -40.5q-97 0 -158.5 73.5t-61.5 209.5zM371 647q-61 0 -110 -33.5t-78.5 -88.5t-44.5 -119.5t-15 -132.5q0 -203 141 -203q61 0 110 33.5 t78.5 88t44.5 119t15 132.5q0 204 -141 204z" />
<glyph d="M470 0h-415q-8 0 -8 10l12 60q1 10 13 10h162l102 521l-152 -73q-7 -3 -12 -3t-5 10l13 70q3 10 15 16l184 91q8 5 16 5h41q8 0 8 -10l-121 -627h163q9 0 9 -10l-13 -60q-1 -10 -12 -10z" />
<glyph d="M23 10l9 43q3 16 14 24l336 280q55 46 78.5 83t23.5 91t-31 85t-88 31q-65 0 -107.5 -39t-53.5 -99q-2 -15 -17 -15h-58q-10 0 -10 8q0 2 1 7q19 101 82 159.5t174 58.5q88 0 142 -53t54 -133q0 -70 -35 -127t-102 -113l-266 -221h326q8 0 8 -10l-13 -60q-1 -10 -12 -10 h-447q-8 0 -8 10z" />
<glyph d="M250 353l10 58q2 11 14 11h53q65 0 110 31t45 93q0 47 -28 74t-83 27t-96.5 -31.5t-58.5 -85.5q-3 -12 -15 -12h-60q-13 0 -10 18q23 88 88 139.5t160 51.5q85 0 136 -45t51 -117q0 -130 -121 -178q40 -17 66 -54.5t26 -95.5q0 -122 -73 -184.5t-198 -62.5 q-91 0 -151.5 55.5t-60.5 137.5q0 10 2 28q3 17 17 17h55q11 0 11 -13q0 -3 -0.5 -11t-0.5 -13q0 -56 34.5 -88.5t102.5 -32.5q82 0 128 41t46 117q0 55 -33.5 84.5t-97.5 29.5h-58q-10 0 -10 11z" />
<glyph d="M322 10l26 137h-309q-7 0 -7 11l7 38q2 12 12 23l418 490q6 8 15 8h54q8 0 8 -10l-93 -480h98q8 0 8 -10l-12 -59q-2 -11 -12 -11h-99l-26 -137q-1 -10 -14 -10h-66q-8 0 -8 10zM425 543l-263 -316h203z" />
<glyph d="M89 334l115 373q3 10 12 10h381q8 0 8 -10l-12 -60q-1 -10 -12 -10h-313l-69 -212q78 50 165 50q90 0 140 -52t50 -148q0 -128 -78 -206.5t-212 -78.5q-87 0 -145 52t-58 131q0 13 2 27q3 15 16 15h56q10 0 10 -15q0 -60 34 -95t96 -35q84 0 136.5 53t52.5 139 q0 133 -129 133q-75 0 -155 -62q-11 -9 -19 -9h-64q-8 0 -8 10z" />
<glyph d="M63 228q0 77 12.5 148.5t39.5 135.5t66 111.5t96 75.5t125 28q87 0 140.5 -50t53.5 -128q-2 -10 -13 -10h-62q-9 0 -9 10q-4 52 -37.5 77t-81.5 25q-77 0 -133.5 -64.5t-82.5 -196.5q74 73 184 73q84 0 138.5 -56t54.5 -153q0 -120 -77 -192t-206 -72q-92 0 -150 63.5 t-58 174.5zM337 383q-79 0 -132 -48.5t-53 -128.5q0 -63 35 -99.5t96 -36.5q79 0 131 49.5t52 130.5q0 60 -33.5 96.5t-95.5 36.5z" />
<glyph d="M143 647l13 60q1 10 12 10h435q8 0 8 -10l-8 -39q-3 -13 -10 -26l-362 -635q-4 -7 -13 -7h-67q-9 0 -9 7q0 2 3 8l353 622h-346q-9 0 -9 10z" />
<glyph d="M145 507q0 100 70.5 160t177.5 60q85 0 137 -45.5t52 -121.5q0 -121 -120 -179q79 -57 79 -147q0 -118 -78 -181t-198 -63q-92 0 -149 50.5t-57 134.5q0 71 39 124t108 82q-26 21 -43.5 55t-17.5 71zM324 338q-74 0 -125.5 -39.5t-51.5 -112.5q0 -54 34 -85t92 -31 q74 0 127 40.5t53 113.5q0 51 -34.5 82.5t-94.5 31.5zM386 647q-62 0 -109.5 -34.5t-47.5 -97.5q0 -43 29 -71t82 -28q63 0 110.5 35t47.5 98q0 49 -29.5 73.5t-82.5 24.5z" />
<glyph d="M585 488q0 -97 -20.5 -184t-60.5 -158.5t-106.5 -113.5t-151.5 -42q-87 0 -140.5 50t-53.5 128q2 10 14 10h61q9 0 9 -10q4 -52 37.5 -77t81.5 -25q77 0 133.5 64.5t82.5 196.5q-74 -73 -184 -73q-84 0 -138.5 56t-54.5 153q0 120 77 192t206 72q92 0 150 -64t58 -175z M311 334q79 0 132.5 48.5t53.5 128.5q0 63 -35 99.5t-96 36.5q-79 0 -131.5 -49.5t-52.5 -130.5q0 -60 33.5 -96.5t95.5 -36.5z" />
<glyph horiz-adv-x="644" d="M38 273q0 83 21.5 161.5t62 145t108.5 107t153 40.5q97 0 158.5 -74t61.5 -210q0 -83 -21.5 -161.5t-62 -144.5t-108.5 -106.5t-153 -40.5q-97 0 -158.5 73.5t-61.5 209.5zM515 443q0 108 -41 160l-242 -529q15 -4 35 -4q61 0 110 33.5t78.5 88t44.5 119t15 132.5z M374 647q-61 0 -110 -33.5t-78.5 -88.5t-44.5 -119.5t-15 -132.5q0 -107 41 -159l242 529q-15 4 -35 4z" />
<glyph horiz-adv-x="630" d="M305 175q-75 0 -123 46q-34 -9 -55 -29.5t-21 -47.5q0 -23 15 -36t42 -13q23 0 64.5 10t80.5 10q93 0 145 -40t52 -113q0 -86 -75.5 -130.5t-185.5 -44.5q-102 0 -161.5 37t-59.5 108q0 66 55 110q-55 37 -55 96q0 101 125 142q-6 20 -6 41q0 83 61.5 143t154.5 60 q61 0 104 -30l83 63q5 4 9 4t7 -5l32 -43q2 -3 2 -8t-6 -9l-80 -63q8 -24 8 -57q0 -89 -60 -145t-152 -56zM160 20q-54 -28 -54 -81q0 -76 142 -76q41 0 78.5 8t67.5 30t30 56q0 82 -138 82q-26 0 -66 -8.5t-60 -10.5zM344 449q-47 0 -82.5 -33t-35.5 -82q0 -39 24.5 -61 t66.5 -22q46 0 81 32.5t35 78.5q0 41 -24 64t-65 23z" />
<glyph horiz-adv-x="665" d="M338 591l32 -39q3 -4 3 -7q0 -4 -7 -10l-165 -137h391q8 0 8 -10l-11 -55q-2 -10 -12 -10h-396l112 -137q3 -4 3 -8t-5 -9l-38 -35q-4 -4 -8 -4q-6 0 -12 6l-168 206q-7 9 -7 15q0 16 16 28l243 207q5 4 11 4t10 -5z" />
<glyph horiz-adv-x="665" d="M315 134l-31 39q-3 4 -3 7q0 4 7 10l165 137h-392q-8 0 -8 10l12 55q2 10 12 10h395l-112 137q-3 4 -3 8t5 9l38 35q4 4 9 4t11 -6l169 -206q6 -7 6 -15q0 -16 -15 -28l-244 -207q-5 -4 -10 -4q-7 0 -11 5z" />
<glyph d="M69 108l64 54q-18 36 -18 80q0 90 56 151l-38 46q-2 3 -2 6q0 5 5 9l42 34q5 5 7 5q3 0 8 -5l39 -48q56 28 117 28t109 -38l65 55q4 4 8 4t7 -4l32 -41q2 -3 2 -6q0 -4 -5 -8l-64 -54q18 -39 18 -79q0 -88 -53 -149l35 -42q2 -3 2 -6q0 -4 -5 -8l-42 -35q-4 -4 -7 -4 q-4 0 -8 4l-34 43q-53 -29 -122 -29q-64 0 -109 37l-65 -55q-5 -4 -9 -4q-2 0 -6 4l-32 40q-3 5 -3 6q0 5 6 9zM343 398q-65 0 -108.5 -41.5t-43.5 -105.5q0 -49 29 -80t73 -31q64 0 107.5 42t43.5 106q0 49 -28.5 79.5t-72.5 30.5z" />
<glyph d="M55 102q104 108 104 205v11h-83q-8 0 -8 11l11 59q1 10 12 10h61q-10 43 -10 79q0 110 72 180t184 70q94 0 142 -48t48 -119q0 -24 -2 -36q-1 -10 -13 -10h-67q-8 0 -8 10q2 14 2 22q0 45 -27 72t-82 27q-69 0 -114 -45t-45 -116q0 -40 8 -86h209q8 0 8 -10l-12 -59 q-2 -11 -12 -11h-186q-2 -72 -29 -124t-85 -112h376q8 0 8 -10l-12 -62q-1 -10 -12 -10h-456q-8 0 -8 10l14 72q1 9 12 20z" />
<glyph d="M108 344h134l-114 363q0 10 8 10h82q6 0 9 -8l103 -340l237 340q5 8 14 8h84q6 0 6 -5q0 -2 -2 -5l-255 -363h142q8 0 8 -10l-11 -60q-3 -10 -12 -10h-184l-13 -68h163q8 0 8 -11l-12 -59q-1 -10 -13 -10h-162l-21 -106q-1 -10 -12 -10h-70q-8 0 -8 10l21 106h-155 q-8 0 -8 10l12 59q2 11 12 11h155l13 68h-175q-8 0 -8 10l11 60q1 10 13 10z" />
<glyph d="M54 493h66q40 110 119.5 172t174.5 62q109 0 163.5 -63t54.5 -167q-3 -11 -12 -11h-63q-9 0 -9 11q0 72 -36.5 111t-105.5 39q-58 0 -110.5 -39t-85.5 -115h203q9 0 9 -11l-11 -59q-3 -10 -13 -10h-215l-12 -55q-6 -26 -9 -54h215q8 0 8 -10l-11 -60q-1 -10 -13 -10h-203 q7 -154 140 -154q66 0 117.5 39.5t79.5 110.5q4 10 12 10h62q9 0 9 -10q-31 -103 -105 -166.5t-179 -63.5t-163.5 59.5t-60.5 174.5h-68q-7 0 -7 10l10 60q3 10 12 10h55q3 26 9 54l12 55h-54q-8 0 -8 10l11 59q2 11 12 11z" />
<glyph d="M202 10l16 87q-73 18 -112.5 78t-39.5 144q0 119 70.5 203t185.5 100l16 85q1 10 12 10h66q8 0 8 -10l-16 -84q66 -11 111.5 -59t46.5 -114q0 -12 -9 -12h-62q-12 0 -14 9q-12 85 -89 100l-74 -378q80 12 127 100q5 10 16 10h64q6 0 6 -7q0 -4 -3 -10q-70 -157 -225 -170 l-15 -82q-1 -10 -13 -10h-65q-8 0 -8 10zM154 321q0 -118 79 -146l73 368q-69 -18 -110.5 -79t-41.5 -143z" />
<glyph d="M115 510q0 100 69.5 156t175.5 60l17 83q1 10 12 10h66q8 0 8 -10l-18 -88q72 -16 112 -63t40 -107q0 -15 -1 -24q-1 -10 -12 -10h-68q-8 0 -8 10q1 5 1 16q0 73 -80 95l-46 -241q90 -27 137.5 -67t47.5 -107q0 -110 -70 -168.5t-195 -63.5l-15 -83q-1 -10 -13 -10h-65 q-8 0 -8 10l16 88q-75 14 -124.5 64t-49.5 121q0 24 2 36q1 10 12 10h68q8 0 8 -10q-2 -16 -2 -22q0 -45 26 -76t76 -42l51 259q-170 50 -170 174zM478 207q0 39 -28 64.5t-83 42.5l-48 -241q72 6 115.5 40.5t43.5 93.5zM205 527q0 -38 22.5 -62t73.5 -43l43 221 q-57 -5 -98 -33.5t-41 -82.5z" />
<glyph d="M459 125l-13 -65q-1 -7 -6 -7q-3 0 -7 2l-329 199q-8 5 -8 13l16 76q1 8 12 13l408 200q2 1 6 1t4 -7l-15 -75q-1 -8 -13 -14l-335 -161l273 -161q7 -5 7 -14z" />
<glyph d="M117 452h432q8 0 8 -11l-11 -59q-3 -10 -12 -10h-433q-8 0 -8 10l11 59q2 11 13 11zM76 244h432q8 0 8 -11l-11 -59q-1 -10 -12 -10h-433q-8 0 -8 10l11 59q2 11 13 11z" />
<glyph d="M182 485l13 65q1 7 6 7q3 0 7 -2l329 -199q8 -5 8 -13l-16 -76q-1 -8 -12 -13l-408 -200q-2 -1 -6 -1t-4 7l15 75q1 9 13 15l335 160l-273 161q-7 5 -7 14z" />
<glyph d="M401 566l-34 -176h176q8 0 8 -10l-11 -59q-2 -11 -13 -11h-176l-35 -176q-1 -10 -11 -10h-63q-10 0 -10 10l35 176h-176q-8 0 -8 11l11 59q1 10 12 10h177l34 176q2 11 12 11h63q9 0 9 -11z" />
<glyph d="M413 580l-35 -177h176q8 0 8 -10l-11 -59q-1 -10 -12 -10h-177l-34 -177q-1 -10 -12 -10h-63q-9 0 -9 10l35 177h-177q-8 0 -8 10l11 59q1 10 13 10h176l35 177q1 10 11 10h63q10 0 10 -10zM57 80h432q9 0 9 -10l-12 -60q-1 -10 -12 -10h-432q-8 0 -8 10l11 60 q1 10 12 10z" />
<glyph d="M240 98h79q9 0 9 -10l-15 -78q-1 -10 -12 -10h-80q-8 0 -8 10l14 78q1 10 13 10zM321 514h79q9 0 9 -10l-15 -78q-1 -10 -12 -10h-80q-8 0 -8 10l14 78q1 10 13 10zM106 297h433q8 0 8 -10l-11 -60q-1 -10 -13 -10h-432q-8 0 -8 10l11 60q1 10 12 10z" />
<glyph d="M524 476l-146 -126l99 -125q2 -3 2 -6t-5 -8l-45 -39q-4 -4 -8 -4q-2 0 -6 4l-102 128l-151 -131q-4 -4 -7 -4q-4 0 -8 4l-39 48q-3 5 -3 6q0 3 6 8l154 129l-99 118q-2 3 -2 6q0 5 5 9l46 38q7 5 8 5t6 -5l99 -120l146 125q5 4 8 4q2 0 6 -4l39 -46q2 -3 2 -6t-5 -8z " />
<glyph d="M266 10l66 193h-130l-66 -193q-3 -10 -13 -10h-70q-7 0 -7 10l66 193h-117q-8 0 -8 10l12 61q2 11 11 11h129l49 147h-109q-8 0 -8 10l12 62q1 10 12 10h121l66 193q3 10 13 10h70q8 0 8 -6l-1 -4l-66 -193h130l66 193q3 10 13 10h70q8 0 8 -6l-1 -4l-66 -193h118 q8 0 8 -10l-12 -62q-1 -10 -12 -10h-129l-49 -147h109q8 0 8 -11l-12 -61q-1 -10 -12 -10h-121l-66 -193q-3 -10 -13 -10h-70q-7 0 -7 10zM279 432l-50 -147h130l50 147h-130z" />
<glyph d="M469 -7q0 -99 -65 -152.5t-164 -53.5q-86 0 -137.5 49t-51.5 119v25q1 10 14 10h66q8 0 8 -10q0 -2 -0.5 -9t-0.5 -8q0 -44 28.5 -69t81.5 -25q54 0 93.5 31.5t39.5 85.5q0 39 -26.5 67t-85.5 65q-77 49 -113 89.5t-36 84.5q0 75 68 128q-29 38 -29 101q0 94 66.5 150 t167.5 56q84 0 134.5 -47.5t50.5 -116.5q0 -15 -1 -28q-2 -11 -13 -11h-67q-9 0 -9 11q1 8 1 17q0 43 -29 68t-80 25q-54 0 -93.5 -31.5t-39.5 -85.5q0 -39 26 -67.5t85 -64.5q78 -49 114 -89.5t36 -84.5q0 -74 -69 -128q30 -39 30 -101zM279 347l-32 20q-39 -27 -39 -66 q0 -26 30 -55t111 -79l32 -20q39 27 39 66q0 26 -29.5 54.5t-111.5 79.5z" />
<glyph d="M436 330h-325q-9 0 -9 10l12 55q2 11 12 11h397q8 0 8 -11l-39 -205q-1 -10 -13 -10h-61q-8 0 -8 10z" />
<glyph d="M384 583q0 -71 -49 -120.5t-126 -49.5q-54 0 -91 37t-37 97q0 71 49 120.5t126 49.5q54 0 91 -37t37 -97zM219 474q42 0 70.5 30.5t28.5 70.5q0 80 -73 80q-41 0 -70 -31t-29 -70t19.5 -59.5t53.5 -20.5zM25 206l554 354q4 2 6 2q4 0 7 -5l17 -32q2 -4 2 -6q0 -3 -6 -8 l-554 -354q-4 -2 -6 -2q-5 0 -7 5l-18 31q-2 4 -2 7t7 8zM549 170q0 -71 -49 -120.5t-126 -49.5q-54 0 -91 37t-37 97q0 71 49 120.5t126 49.5q54 0 91 -37t37 -97zM384 61q42 0 70.5 31t28.5 71q0 80 -73 80q-41 0 -70 -31.5t-29 -70.5t19.5 -59.5t53.5 -20.5z" />
<glyph d="M216 98h80q8 0 8 -10l-15 -78q-1 -10 -13 -10h-79q-9 0 -9 10l16 78q1 10 12 10z" />
<glyph d="M185 -55q30 0 41 8t16 35l2 12h-47q-9 0 -9 10l16 78q1 10 12 10h80q8 0 8 -10l-21 -107q-8 -40 -27 -56.5t-56 -16.5h-22q-8 0 -8 10l3 16q3 11 12 11z" />
<glyph d="M216 98h80q8 0 8 -10l-15 -78q-3 -10 -13 -10h-79q-9 0 -9 10l16 78q1 10 12 10zM298 514h80q8 0 8 -10l-15 -78q-1 -10 -13 -10h-79q-9 0 -9 10l16 78q1 10 12 10z" />
<glyph d="M298 514h80q8 0 8 -10l-15 -78q-1 -10 -13 -10h-79q-9 0 -9 10l16 78q1 10 12 10zM185 -55q30 0 41 8t16 35l2 12h-47q-9 0 -9 10l16 78q1 10 12 10h80q8 0 8 -10l-21 -107q-8 -40 -27 -56.5t-56 -16.5h-22q-8 0 -8 10l3 16q3 11 12 11z" />
</font>
</defs>
</svg>
